<svg version="1" xmlns="http://www.w3.org/2000/svg" width="546.667" height="546.667" viewBox="0 0 410.000000 410.000000"><path d="M183.8 25.6c-.3.3-3 .7-6 .9-15.7 1.2-19.5 1.5-22.8 1.9-1.9.3-5.7.8-8.5 1.1-2.7.3-6.1.7-7.5 1-1.4.2-4.3.7-6.5 1-5.8.8-9.3 1.4-15 2.5-2.7.5-6.1 1.2-7.5 1.4-11.9 2.3-46 11.3-53 14-1.2.5-1.5 2.7-1.3 12.3.2 12.8.7 15 2.6 13.6.6-.6 4.1-1.8 7.7-2.7 3.6-.9 7.4-2.1 8.5-2.6 1.9-.8 28.7-7.3 35-8.4 1.7-.3 4.1-.8 5.5-1.1 1.4-.3 3.9-.8 5.5-1 1.7-.3 3.7-.8 4.5-1 .8-.2 4-.7 7-1 3-.4 5.7-.8 6-1 .3-.2 3.7-.6 7.5-1 3.9-.3 8.4-.8 10-1 26.1-4 86.9-3.4 114.5 1 1.4.2 4.5.7 7 1 2.5.3 5.9.8 7.5 1.1 1.7.3 4.1.7 5.5.9 2.2.3 6.8 1.1 12 2 .8.2 3.8.9 6.5 1.5 2.8.6 6.1 1.4 7.5 1.6 3.5.7 14.9 3.4 18.5 4.5 1.7.5 7.6 2.3 13.3 4 5.7 1.7 10.9 2.9 11.5 2.6.8-.3 1.2-4.1 1.1-12.7l-.1-12.3-5.9-1.9c-6-2-37.8-10.3-42.4-11.2-1.4-.2-5.6-1.1-9.5-2-3.8-.8-9.2-1.7-11.8-2-2.7-.3-5.2-.8-5.5-1-.4-.2-3.4-.7-6.7-1-3.3-.4-7.6-.9-9.5-1.2-5.9-.7-12.2-1.4-19-2-3.6-.3-9-.7-12-1.1-11.5-1.1-50.9-1.3-51.6-.2-.5.8-.9.8-1.3 0-.4-.6-1-.9-1.3-.5z"/><path d="M202 86.8c.1 15.1-.1 27.6-.4 27.9-.3.3-13.1.6-28.5.7-24.3.1-28.1-.1-28.2-1.4-.1-.8-.2-12.2-.3-25.2-.1-14.4-.5-24-1.1-24.5-.6-.5-3.2-.4-6 .2l-5 1v24c.1 13.2 0 24.4-.2 25-.2.8-42.2 1.3-48.5.6-.5-.1-.8-8.9-.8-19.7V75.7l-3.2.7c-1.8.4-4.1.9-5.2 1.1-1 .3-4.2 1.1-7 1.9l-5.1 1.5v137.6c0 90.9.3 137.5 1 137.6.6 0 5.1.1 10 .2l9 .1.3-114.7.2-114.6 125 .1 125 .1.1 4.1v114.4c.1 83 .4 110.2 1.2 110.3 1.3.1 16.6.1 18.2 0 .7-.1 1-46.6 1-137.6V81.1l-2.2-.6c-1.3-.3-2.6-.6-3-.6-.5-.1-1.9-.6-3.3-1.1-2.5-1-5.8-1.7-9.5-2.1-1.9-.2-2 .5-2.2 15.3-.1 8.5-.2 17.3-.2 19.5l-.1 4-21.8-.2c-11.9 0-23-.2-24.7-.2l-3-.1.1-24.8.2-24.9-5.9-.9c-4.9-.8-5.8-.8-6.1.6-.2.8-.3 12.4-.2 25.7.1 21.6-.1 24.3-1.5 24.4-1.7.1-52.8.1-54.8 0-.9-.1-1.2-6.7-1.2-27.1 0-14.9-.2-27.4-.6-27.9-.3-.5-3-.9-6-.8l-5.6.2.1 27.3z"/><path d="M202.5 136.1c-14.6 2.6-24.9 13.6-24.9 26.4 0 7.8 1.5 12.7 6.1 20.2 6.3 10.2 16.6 20.1 30.4 29.3 6.6 4.4 6.4 3.6-1.5-4.5-2.7-2.7-6-6.6-7.5-8.5-1.4-1.9-2.8-3.7-3.2-4-1.8-1.6-7.5-11.1-10.1-16.8-6.6-14.6-3.1-25.9 10.1-32.2 9.1-4.4 25-.9 30.8 6.7 5.4 7 2.5 19.2-4.8 20.8-9.1 2-12.5-8.4-5.9-18.1 3.4-5.1 3.5-5.4 1.6-5.4-2.3 0-7.4 4.8-10.2 9.6-3.2 5.5-3.6 10.7-1.2 15.6 3.9 8 12.6 10.1 20.2 4.9 6.7-4.6 9.1-9.2 9.1-17.1-.1-7.6-1.7-11.3-7.8-17.4-8.1-8-19.6-11.5-31.2-9.5z"/><path d="M241.1 138.3c-4.7 1.7-7.2 4-5.9 5.3.3.2 1.8 0 3.4-.6 11.2-4.3 22.1-.4 27.1 9.8 5.5 11.2 1.9 26.7-8.9 38.3-1.8 1.9-7.8 7.3-13.3 11.8-23.4 19.4-30.3 26.2-34.7 34.1-3.3 6-4.7 13.2-3.6 18.5 1 4.7 2.6 6.7 2.6 3.3 0-5.2 3.3-13.8 7.4-19 6-7.6 7.6-9.1 24.3-22.3 23.4-18.6 32.2-28.7 36.8-42.4 5.3-15.7.6-29.6-12.3-36.1-6.1-3.1-15.8-3.4-22.9-.7z"/><path d="M134 151.4c-7.5 1.6-11.9 3.9-16.8 8.7-6 6-7.7 10.1-7.9 19.4-.1 4.4-.2 8.3-.2 8.6-.1.3-1.8 2.7-3.8 5.3-3.3 4.2-3.6 5.3-3.4 9.9.5 12.3.4 13.8-1.6 16-3.7 4-4.5 6.7-3.8 11.6 1.7 11 1.6 11.8-1.4 15-1.6 1.7-4.3 3.4-6 3.7-2.6.6-2.9.9-2 2.5 1.6 3 6 5.4 10.3 5.5 2.9.1 4 .5 3.8 1.5-2.5 9.6-3.3 26-1.8 33.9.4 1.9.8 4.6 1 6 2 13.9 2.3 17 1.5 20.5-.4 2 .2 2 28.2 2.1l28.7.1-2.5-7.1c-1.3-3.9-2.8-7.4-3.1-7.8-.4-.3-2.5-.9-4.7-1.2-4.7-.7-16.7-6.3-20.9-9.7-11.7-9.6-20.8-22.3-22.1-31.1l-.6-3.3 1.8 3.5c1 1.9 2 3.7 2.3 4 .3.3 1.8 2.5 3.4 4.9 3.4 5.2 3.8 5.8 9.1 11.4 9.1 9.6 17.6 14.7 27.6 16.6 5.7 1 51.5.7 58.4-.4 14.1-2.3 27.6-7.7 25.2-10.1-.3-.3-3.7.3-7.6 1.4-4.1 1.2-7.3 1.6-7.6 1.1-.4-.5.3-.9 1.3-.9 1.1 0 2.5-.6 3.1-1.4 1.6-2-.1-2.4-6.9-1.8-11.1 1.1-23.3.6-33.6-1.2-4.9-.9-9.1-1.7-11.4-2.1-2.9-.6-8.9-1.4-14-1.9-5.4-.6-7.8-1.3-10.4-3.3-2.1-1.5-6.6-9.4-9.7-16.8-4.3-10.6-8.3-17.8-11.7-21.4-4.7-5-5.1-5.6-2.1-4.1 7.2 3.9 10.3 8.5 20.7 31 2.7 5.8 8.4 13.1 10.1 13 1.4-.1 6.3-11.8 6.3-15.2 0-4.3-.9-6.2-7.8-15.1-4.8-6.3-10.5-11.2-11.6-10.1-.3.2-2.9-2-5.9-5-5.6-5.4-10.5-8.6-13.4-8.6-.8 0-1.5-.4-1.5-.9 0-2.4 10 1.3 13.6 5 3 3.2 9.2 7.4 9.9 6.8.2-.3-.5-2.9-1.5-5.9-2.3-6.8-1.8-11.7 1.6-14.8 2.7-2.3 3.4-2.5 10.4-2.3 5.3.1 6.7-.6 7.3-3.9.3-1.4.8-3.3 1.2-4.3.5-1.2.1-2.3-1.1-3.3-1.8-1.4-1.8-1.5.4-.9 1.8.5 2.2.2 2.2-1.5 0-1.4.9-2.4 3-3.1 2.9-1.1 4.1-4.1 2.1-5.3-.5-.3-.7-3-.5-5.8 2-24.5.7-28.1-12.1-34.2-8.6-4-13.7-4.8-21.5-3.2z"/><path d="M283.4 206.1c-4.2 1.3-7.4 3.1-10.1 5.7-3.3 3.3-3.9 4.4-4 8.3-.2 11.9-1 20.6-2.2 22.7-1.1 2.1-1 2.4 1.8 3.5 2.4.9 3 1.6 2.5 3.1-.5 1.6-.3 1.8 2.2 1.2 2.7-.7 2.8-.6.9.7-1.8 1.4-1.8 1.7-.5 4.1 1.3 2.6 2.8 3.3 8.2 3.9 1.5.2 3 .6 3.3.9 1.2 1.1-1.5 8.3-4.1 11.3-4.7 5.4-10 13.8-14.3 22.7l-4.2 8.8-7.2 3.4c-11.9 5.7-20.7 6.4-25.1 2-2.9-3-4.5-2.5-3.8 1.1.5 2.8 0 2.8-6.7-.2-5.1-2.3-6-.2-1.6 3.5 5.1 4.2 12.6 6.3 23.6 6.6 18.2.5 27.1-2.8 38.8-14.4 8.5-8.4 10.5-10.9 13.7-17 1.4-2.7 2.8-5 2.9-5 .2 0-.1 1.7-.7 3.7-2.9 10.5-18.3 27.2-30 32.7-2.1.9-3.8 1.8-3.8 2 0 .1 11 .3 24.5.3s24.5-.3 24.5-.6-.7-3-1.5-6c-1-3.8-1.3-9.3-1.1-18.5.5-16.2-.8-25.1-4.6-33.6-1.2-2.5-2.1-6.1-2.2-8-.1-3.1.2-3.5 2.4-3.5 2.7 0 2.6-.1 1.4 7.6-.5 3.1-.2 3.9 2.1 5.7 2.8 2.2 3.1 4.1 1.9 10-1.1 5.3 2.7 7.8 7.7 5.2 1.9-1.1 1.9-1.1-.2-4-2-2.6-2-3.2-.9-5.9.7-1.7 1.6-3.1 2-3.1.4 0 1.2-1.8 1.9-3.9 1.4-4.7.4-7.7-3.8-12.2-1.8-1.9-2.7-3.7-2.4-4.6.6-1.4.7-1.4 1.8.1 1.4 1.8 2.4 2 4.5.6 1.3-.8 1-1.4-1.4-3.5l-2.9-2.5h3.7c3.4 0 3.7-.2 3-2.3-.9-3.1-1.2-3.3-3.6-1.8-2 1.2-2 1.1-1.3-1.6 1.1-4.2 1.3-13.4.3-17-.9-3.5-5.5-8.6-9.8-10.8-6.4-3.3-17.4-3.9-25.6-1.4zm16.2 59.7c1 .5 2.8 2 3.9 3.3l2 2.2-2.5-1.3c-1.4-.7-2.8-1.7-3.1-2.3-.4-.5-2.8-1.2-5.4-1.4-2.5-.3-4.1-.9-3.5-1.3 1.6-1 6.1-.6 8.6.8z"/><path d="M172 266.4c-4.1 1.8-1.2 8 5.7 12.4 16.2 10.3 44.5 11.2 63.8 2.1 7.6-3.5 9.1-4.8 11-9.2 1.3-3.1 1.3-3.7 0-4.7-1.8-1.5-77.3-2-80.5-.6zM262.3 285.1c-.6.6-.9 1.8-.6 2.5.7 1.9-.4 1.7-3.8-.7-3.9-2.7-5.5-1.6-2.9 2.2 2.4 3.3 2.1 3.5-1.9 1.4-1.6-.8-3.1-1.2-3.4-.9-.9.9.4 3.4 1.8 3.4.6 0 2 .9 3 2 1.7 1.9 1.7 1.9-2 1.7-5-.3-5.6 1.6-1 3s9.6.8 11.2-1.4c3-3.9 2.6-16.2-.4-13.2zM90.7 330.7c-.6.5.3 13.6.9 14.3.3.2 6.4.4 13.7.5h13.2l.1 4.8c.1 2.6.4 5 .7 5.3 1 1.1 13.8 1 14.7-.1.4-.5 1.1-3.1 1.5-5.6l.7-4.5h71.9c39.5 0 71.9.2 72 .5 0 .4.2 1.5.5 2.6.2 1.1.5 3.3.7 4.9.4 2.9.5 3 6.6 3 9 .1 9.6-.2 9.6-6v-4.9l12.8-.1c7 0 12.9-.3 13.2-.5.2-.3.6-1.8.9-3.4.2-1.7.7-4.9 1.1-7.1l.6-4.2H208.6c-64.6 0-117.7.2-117.9.5zM56.3 363.2c-.7 1.2-.6 21.9.2 22.6.9 1 302.6.8 303.2-.1.7-1.1 1-21.7.3-22.6-.7-.9-303-.8-303.7.1z"/></svg>