<?xml version="1.0" standalone="no"?>
<!DOCTYPE svg PUBLIC "-//W3C//DTD SVG 1.1//EN" "http://www.w3.org/Graphics/SVG/1.1/DTD/svg11.dtd" >
<svg xmlns="http://www.w3.org/2000/svg">
<metadata>Generated by IcoMoon</metadata>
<defs>
<font id="ddicon" horiz-adv-x="1024">
<font-face units-per-em="1024" ascent="960" descent="-64" />
<missing-glyph horiz-adv-x="1024" />
<glyph unicode="&#x20;" horiz-adv-x="512" d="" />
<glyph unicode="&#x43;" glyph-name="smjf-c, customize" d="M817.382 252.289q-33.931-135.725-118.76-222.978-88.464-93.311-197.529-93.311-142.996 0-226.613 163.598-69.075 134.514-69.075 289.628 0 172.080 71.498 324.772 52.109 112.701 129.060 179.351t159.356 66.651q99.37 0 155.115-89.676 47.262-77.557 47.262-193.893 0-43.626-8.483-86.040-4.847-27.872-73.922-27.872-35.143 0-79.981 10.907-61.804 16.966-53.321 43.626 39.991 118.76 39.991 179.351 0 37.567-19.389 38.779-65.439 3.636-128.454-162.386-50.897-133.302-58.168-227.825-1.212-19.389-1.212-37.567 0-112.701 41.202-196.317 43.626-88.464 111.489-94.523 69.075-6.059 136.937 56.956 58.168 55.744 81.193 123.607 3.636 10.907 24.237 7.271 38.779-6.059 38.779-39.991 0-6.059-1.212-12.118z" />
<glyph unicode="&#xe900;" glyph-name="scale" d="M162.91 913.456c-89.849 0-162.91-73.059-162.91-162.91v-605.091c0-89.849 73.059-162.91 162.91-162.91h698.181c89.849 0 162.91 73.059 162.91 162.91v605.091c0 89.849-73.059 162.91-162.91 162.91h-698.181zM162.91 866.91h698.181c64.868 0 116.363-51.496 116.363-116.363v-605.091c0-64.868-51.496-116.363-116.363-116.363h-698.181c-64.868 0-116.363 51.496-116.363 116.363v605.091c0 64.868 51.496 116.363 116.363 116.363zM512.001 808.729c-149.593 0-244.461-46.554-286.182-102.182-2.949-3.86-4.725-8.75-4.725-14.057 0-2.513 0.398-4.931 1.135-7.199l-0.046 0.165 58.182-186.181c3.036-9.546 11.813-16.344 22.179-16.364h418.912c10.369 0.020 19.146 6.818 22.137 16.199l0.045 0.165 58.182 186.181c0.69 2.102 1.088 4.521 1.088 7.034 0 5.306-1.775 10.199-4.766 14.113l0.041-0.056c-41.721 55.627-136.589 102.182-286.182 102.182zM488.002 761.456c0.234 0.009 0.491-0.009 0.728 0v-57.454c-0.001-0.098-0.003-0.213-0.003-0.33 0-12.856 10.42-23.276 23.276-23.276s23.276 10.42 23.276 23.276c0 0.116-0.001 0.231-0.003 0.346v-0.018 57.454c47.942-1.827 87.951-9.171 120.727-19.636l-25.091-50.546c-2.207-3.495-3.517-7.746-3.517-12.304 0-12.856 10.42-23.276 23.276-23.276 9.824 0 18.226 6.086 21.642 14.695l0.055 0.158 26.909 53.818c24.181-12.098 41.935-25.48 53.818-38.546l-48.727-156.363h-171.999l-57.454 126.182c-3.673 8.316-11.848 14.015-21.354 14.015-1.062 0-2.107-0.071-3.131-0.209l0.119 0.013c-11.412-1.619-20.092-11.324-20.092-23.057 0-3.647 0.839-7.099 2.336-10.174l-0.061 0.138 48.727-106.908h-161.818l-48.727 156.363c11.884 13.066 29.637 26.448 53.818 38.546l26.909-53.818c3.472-8.766 11.874-14.851 21.698-14.851 12.856 0 23.276 10.42 23.276 23.276 0 4.559-1.309 8.81-3.573 12.399l0.056-0.096-25.091 50.546c32.615 10.415 72.369 17.764 120 19.636z" />
<glyph unicode="&#xe901;" glyph-name="apple_books, september" d="M972.969 306.816v-41.958c0-60.103-47.627-108.863-106.596-111.133-1.134 0-1.134 0-2.267 0h-700.81c-20.412 0-38.556-9.073-51.030-22.68h716.686c6.804 0 12.474-5.67 12.474-12.474s-5.67-12.474-12.474-12.474h-730.294c-1.134-5.67-2.267-11.34-2.267-18.144v-7.937h732.561c6.804 0 12.474-5.67 12.474-12.474s-5.67-12.474-12.474-12.474h-732.561v-7.937c0-6.804 1.134-12.474 2.267-18.144h730.294c6.804 0 12.474-5.67 12.474-12.474s-5.67-12.474-12.474-12.474h-716.686c12.474-13.607 30.618-22.68 51.030-22.68h700.81c12.474 0 22.68-10.207 22.68-22.68s-10.207-22.68-22.68-22.68h-700.81c-61.236 0-112.266 49.896-112.266 112.266v41.958c0 60.103 47.627 108.863 106.596 111.133 1.134 0 1.134 0 2.267 0h700.81c20.412 0 38.556 9.073 51.030 22.68h-716.686c-6.804 0-12.474 5.67-12.474 12.474s5.67 12.474 12.474 12.474h730.294c1.134 5.67 2.267 11.34 2.267 18.144v7.937h-732.561c-6.804 0-12.474 5.67-12.474 12.474s5.67 12.474 12.474 12.474h732.561v7.937c0 6.804-1.134 12.474-2.267 18.144h-730.294c-6.804 0-12.474 5.67-12.474 12.474s5.67 12.474 12.474 12.474h716.686c-12.474 13.607-30.618 22.68-51.030 22.68h-699.675c-12.474 0-22.68 10.207-22.68 22.68s10.207 22.68 22.68 22.68h288.036c-4.537 2.267-7.937 4.537-11.34 6.804-26.082 19.277-44.226 44.226-60.103 71.442-17.010 30.618-29.484 62.37-34.019 96.389-5.67 36.288-3.403 72.577 14.742 106.596 17.010 32.886 46.493 52.163 81.647 62.37 28.35 7.937 56.7 9.073 86.184 3.403 9.073-2.267 17.010-7.937 26.082-10.207 0 3.403 1.134 6.804 1.134 10.207-1.134 6.804-2.267 12.474-4.537 19.277-10.207 22.68-24.948 37.422-46.493 49.896-14.742 7.937-28.35 15.877-44.226 21.546-1.134 0-1.134 0-2.267 0 0 0 0-1.134 0-1.134 1.134-1.134 2.267-1.134 3.403-2.267 17.010-10.207 32.886-20.412 48.763-32.886 10.207-9.073 18.144-20.412 24.948-34.019-4.537-2.267-7.937-3.403-11.34-4.537-17.010-5.67-34.019-3.403-49.896 4.537-21.546 10.207-37.422 27.216-49.896 47.627-19.277 35.154-23.814 71.442-13.607 109.997 1.134 4.537 2.267 9.073 4.537 12.474 1.134 1.134 2.267 3.403 3.403 3.403s3.403-2.267 4.537-3.403c10.207-18.144 24.948-31.752 44.226-39.69 9.073-3.403 20.412-4.537 30.618-6.804 12.474-2.267 24.948-4.537 36.288-10.207 17.010-9.073 29.484-21.546 36.288-39.69 4.537-15.877 2.267-30.618-5.67-44.226-3.403-5.67-3.403-7.937 0-13.607 0 0 0-1.134 1.134-1.134 4.537 11.34 11.34 22.68 19.277 34.019 7.937 10.207 18.144 19.277 28.35 28.35 5.67 5.67 13.607 6.804 21.546 4.537 9.073-2.267 11.34-11.34 5.67-18.144-2.267-2.267-4.537-4.537-7.937-5.67-32.886-22.68-56.7-52.163-71.442-89.586 7.937 1.134 17.010 7.937 24.948 10.207 29.484 5.67 57.833 4.537 86.184-3.403 35.154-10.207 63.503-28.35 81.647-62.37s20.412-69.174 14.742-106.596c-5.67-34.019-17.010-66.906-34.019-96.389-15.877-27.216-34.019-53.297-60.103-71.442-3.403-2.267-6.804-4.537-11.34-6.804h200.717c61.236 1.134 111.133-48.763 111.133-111.133z" />
<glyph unicode="&#xe902;" glyph-name="crockpot, slow-cook" d="M512.001 282.040c9.504 0 17.203 7.699 17.203 17.203v29.443c0 9.504-7.699 17.203-17.203 17.203s-17.203-7.699-17.203-17.203v-29.443c0-9.504 7.699-17.203 17.203-17.203zM667.358 190.542h-29.452c-9.504 0-17.203-7.699-17.203-17.203s7.699-17.203 17.203-17.203h29.452c9.504 0 17.203 7.699 17.203 17.203s-7.699 17.203-17.203 17.203zM512.001 257.103c-46.186 0-83.765-37.578-83.765-83.765 0-46.194 37.578-83.771 83.765-83.771s83.765 37.578 83.765 83.771c0 46.186-37.578 83.765-83.765 83.765zM512.001 123.973c-27.223 0-49.359 22.143-49.359 49.366 0 27.215 22.143 49.359 49.359 49.359s49.359-22.143 49.359-49.359c0-27.223-22.143-49.366-49.359-49.366zM386.096 190.542h-29.452c-9.504 0-17.203-7.699-17.203-17.203s7.699-17.203 17.203-17.203h29.452c9.504 0 17.203 7.699 17.203 17.203s-7.707 17.203-17.203 17.203zM634.012 295.354c-6.723 6.723-17.609 6.723-24.325 0l-20.823-20.823c-6.723-6.723-6.723-17.609 0-24.325 3.358-3.358 7.762-5.037 12.165-5.037s8.801 1.679 12.165 5.037l20.823 20.823c6.715 6.715 6.715 17.602-0.006 24.325zM435.139 274.526l-20.823 20.823c-6.715 6.723-17.616 6.723-24.325 0-6.723-6.723-6.723-17.609 0-24.325l20.823-20.823c3.358-3.358 7.762-5.037 12.165-5.037s8.808 1.679 12.165 5.037c6.709 6.723 6.709 17.609-0.006 24.325zM968.642 461.823h-50.914v86.358l73.278 76.766c11.181 11.712 14.292 28.901 7.921 43.786-6.365 14.891-20.946 24.51-37.138 24.51h-59.612c-64.819 53.322-153.057 89.592-256.248 106.197v36.924c0 38.988-31.709 70.697-70.691 70.697h-124.714c-38.982 0-70.697-31.715-70.697-70.697v-36.643c-103.948-16.473-192.824-52.848-258.009-106.479h-59.612c-16.191 0-30.772-9.62-37.138-24.503-6.372-14.891-3.262-32.073 7.921-43.786l73.284-76.774v-86.352h-50.921c-30.525 0-55.352-24.827-55.352-55.352v-28.777c0-30.525 24.834-55.352 55.352-55.352h50.921v-309.321c0-13.301 10.783-24.085 24.085-24.085h763.286c13.301 0 24.085 10.783 24.085 24.085v309.321h50.914c30.525 0 55.358 24.827 55.358 55.352v28.777c0 30.517-24.834 55.345-55.358 55.345zM975.833 377.696c0-3.957-3.227-7.183-7.19-7.183h-150.009c-3.957 0-7.183 3.227-7.183 7.183v28.777c0 3.957 3.227 7.183 7.183 7.183h150.009c3.963 0 7.19-3.227 7.19-7.183v-28.777zM427.996 836.359c0 12.428 10.107 22.529 22.529 22.529h124.714c12.421 0 22.523-10.107 22.523-22.529v-30.656c-27.745 2.717-56.357 4.164-85.767 4.164-28.791 0-56.805-1.403-84.005-4.012v30.504zM512.001 761.705c119.664 0 224.917-24.036 304.67-68.46h-609.34c79.747 44.426 185.006 68.46 304.67 68.46zM512.001 645.070h431.627l-60.286-63.162h-742.676l-60.292 63.162h431.627zM48.17 377.696v28.777c0 3.957 3.227 7.183 7.183 7.183h150.009c3.963 0 7.183-3.227 7.183-7.183v-28.777c0-3.957-3.221-7.183-7.183-7.183h-150.009c-3.957 0.006-7.183 3.227-7.183 7.183zM869.559 37.104h-715.118v285.244h50.921c30.525 0 55.352 24.827 55.352 55.352v28.777c0 30.525-24.827 55.352-55.352 55.352h-50.921v71.915h715.118v-71.921h-50.921c-30.525 0-55.352-24.827-55.352-55.352v-28.777c0-30.525 24.827-55.352 55.352-55.352h50.921v-285.238z" />
<glyph unicode="&#xe903;" glyph-name="fireworks, july" d="M928.341 959.984l-375.302-12.048c-18.966-0.612-34.116-16.552-34.116-36.128 0-0.535 0.011-1.066 0.033-1.594l-0.003 0.076c1.327-29.983 4.353-58.332 9.163-85.080l-259.12-324.136c-5.032-6.206-8.085-14.263-8.085-23.052 0-9.589 3.636-18.307 9.569-24.777l-0.016 0.019 4.032-4.518-154.299-211.573 129.010 84.327-187.651-289.123 152.467 144.56-46.912-120.468 152.467 132.514-46.912-108.421 117.282 120.468-11.728-36.139 89.793 73.787 1.833-2.259c6.432-6.999 15.524-11.355 25.608-11.355 8.373 0 16.063 3.004 22.105 8.021l-0.067-0.053 337.552 274.819c27.633-3.858 56.496-5.647 86.129-5.647 0.005 0 0.009 0 0.014 0 19.434 0 35.188 16.182 35.188 36.144 0 0.396-0.006 0.79-0.019 1.183l0.001-0.057-11.728 385.498c-0.603 19.476-16.12 35.029-35.172 35.029-0.391 0-0.78-0.007-1.17-0.019l0.057 0.001zM311.512 911.796l-36.651-31.247-49.112 3.388 19.424-44.8-17.593-44.424 31.519 2.26-33.352-342.96 68.903 329.407 20.158-16.189 10.629 47.058 41.049 25.223-42.148 25.6-12.827 46.682zM895.356 886.572l9.529-309.829c-88.588 5.434-161.229 29.907-213.307 76.421-52.852 47.206-86.883 119.625-97.858 223.62l301.635 9.786zM120.196 743.139l-28.587-47.433-43.981-4.141 33.352-43.669-9.895-45.93 24.923 10.54-22.724-278.96 61.939 279.713 22.724-14.683-2.931 56.47 33.352 30.871-50.945 14.306-17.225 42.916zM577.961 682.907c18.536-32.563 41.002-60.716 67.437-84.327 34.994-31.257 75.935-53.999 121.314-69.645l-61.939-50.448c-55.692 50.949-104.881 125.811-126.811 204.419zM505.026 682.525c21.344-97.654 76.703-186.422 143.67-249.971l-22.724-18.448c-68.718 66.736-125.395 168.967-130.109 257.123l9.163 11.295zM436.491 596.692c21.488-86.118 71.905-167.3 133.409-228.138l-22.358-18.070c-58.597 57.201-114.766 156.005-121.68 232.655l10.629 13.552zM367.586 510.857c10.503-37.824 26.811-74.965 47.278-109.174l-71.835 78.303 24.556 30.871zM835.615 405.824l-21.989-34.633-38.482-8.282 9.895-13.93-90.159-51.575 103.354 25.6-3.664-34.636 37.017 14.305 35.551-17.317-1.099 41.788 26.388 30.87-37.75 11.671-19.058 36.139zM665.923 280.463l-28.587-47.436-43.981-4.139 21.989-28.612-178.488-59.481 186.552 29.741-6.598-31.247 49.112 20.707 37.75-24.094-2.931 56.47 33.352 30.871-50.945 13.929-17.225 43.294zM706.605 56.467l-35.551-18.447-37.017 12.423 2.199-19.951-258.020 13.929 251.422-47.811-14.66-20.704 38.482-6.4 21.989-33.504 19.058 36.893 37.75 13.175-26.754 29.366 1.099 41.034z" />
<glyph unicode="&#xe904;" glyph-name="twitter" d="M1022.037 765.056c-37.76-16.597-78.080-27.904-120.533-33.067 43.264 26.069 76.544 67.157 92.288 116.181-40.576-23.68-85.547-40.917-133.419-50.517-38.229 40.917-92.715 66.517-153.216 66.517-115.925 0-209.92-93.995-209.92-209.792 0-16.64 1.92-32.64 5.419-47.957-174.507 8.235-329.173 92.032-432.683 218.709-18.219-30.805-28.416-66.603-28.416-105.6 0-72.96 37.12-137.088 93.355-174.763-34.432 1.109-66.816 10.581-95.061 26.283v-2.603c0-101.76 72.235-186.624 168.363-205.952-17.621-4.736-36.224-7.296-55.296-7.296-13.397 0-26.24 1.28-39.083 3.669 26.923-83.328 104.32-144.085 196.437-145.792-71.68-56.277-162.517-89.813-260.352-89.813-16.64 0-33.237 0.981-49.92 2.859 93.397-59.477 203.435-94.251 322.432-94.251 386.304 0 597.291 319.829 597.291 596.736 0 8.917 0 17.92-0.64 26.88 41.003 29.397 76.8 66.56 104.96 108.715l-2.005 0.853z" />
<glyph unicode="&#xe905;" glyph-name="facebook" d="M967.509 960h-911.019c-31.189 0-56.491-25.301-56.491-56.491v-911.019c0-31.232 25.301-56.491 56.491-56.491h490.411v396.544h-133.504v154.496h133.504v114.133c0 132.224 80.811 204.16 198.784 204.16 56.533 0 105.131-4.139 119.296-6.016v-138.24h-81.963c-64 0-76.459-30.763-76.459-75.563v-98.603h152.917l-19.84-154.88h-133.077v-396.032h260.907c31.275 0 56.533 25.259 56.533 56.491v911.019c0 31.189-25.259 56.491-56.491 56.491z" />
<glyph unicode="&#xe906;" glyph-name="stopwatch, minutes_30" d="M844.806 627.211l42.662 42.662c17.061 17.061 17.061 42.662 0 59.74s-42.662 17.061-59.74 0l-42.662-42.662c-59.74 51.201-136.541 85.34-230.404 93.863v0 93.863h85.34c25.6 0 42.662 17.061 42.662 42.662s-17.061 42.662-42.662 42.662h-256.004c-25.6 0-42.662-17.061-42.662-42.662s17.061-42.662 42.662-42.662h85.34v-85.34c-213.343-25.6-384.006-204.803-384.006-426.668 0-230.404 187.742-426.668 426.668-426.668s426.668 196.264 426.668 426.668c0 102.402-34.14 196.264-93.863 264.543zM512 21.34c-187.742 0-341.345 153.603-341.345 341.345s153.603 341.345 341.345 341.345 341.345-153.603 341.345-341.345-153.603-341.345-341.345-341.345zM554.662 533.348v-170.664c0-25.6-17.061-42.662-42.662-42.662s-42.662 17.061-42.662 42.662v170.664c0 25.6 17.061 42.662 42.662 42.662s42.662-17.061 42.662-42.662z" />
<glyph unicode="&#xe907;" glyph-name="clover, march" d="M661.026 306.537c39.496-27.667 83.078-51.779 127.223-63.527 144.845-38.553 218.483 52.926 211.227 129.374-5.621 58.893-55.409 106.262-55.822 106.655l-0.014 0.054c0.251 0.182 67.83 49.579 35.233 142.652-29.784 85.001-139.808 132.692-253.271 58.053-14.498-9.54-28.931-20.375-43.080-32 17.285 27.469 31.752 56.352 40.681 85.629 43.786 143.435-44.97 220.285-121.686 215.782-59.249-3.494-108.592-51.92-108.592-51.92s-46.955 69.553-141.262 40.274c-86.105-26.684-137.645-134.974-67.174-251.050 0.528-0.87 1.101-1.738 1.639-2.607-0.949 0.673-1.891 1.387-2.84 2.049-111.35 77.771-222.732 33.246-254.855-50.905-35.285-92.334 31.201-143.608 31.201-143.608s-51.554-46.184-58.811-105.126c-9.378-76.237 61.688-169.709 207.568-135.218 20.402 4.819 40.783 12.285 60.773 21.448-3.462-3.734-6.862-7.482-10.128-11.256-88.862-102.624-56.105-218.006 24.295-258.632 88.132-44.645 146.050 16.162 146.050 16.162s40.581-56.053 98.453-69.386c74.819-17.215 175.199 43.829 155.974 192.473-6.636 51.372-28.991 104.212-55.321 151.488 85.072-103.886 207.747-224.535 370.767-318.534l24.749 55.608c-111.877 51.512-242.431 136.314-362.972 276.067z" />
<glyph unicode="&#xe908;" glyph-name="snow_flake, january" d="M488.727 960v-93.454l-40.817 40.908-28.817-37.091 69.636-69.636v-65.818l-98.455 98.455-28.727-37.091 127.182-127.182v-59.818c-42.718-6.325-79.359-28.443-104.468-60.116l-0.259-0.338-51.818 29.909-46.545 173.726-46.545-6.364 36.091-134.454-56.999 32.909-25.545 95.090-46.455-6.364 15-55.817-80.908 46.727-23.273-40.363 80.908-46.727-55.817-14.909 17.635-43.455 95.181 25.455 56.999-32.909-134.454-36 17.635-43.455 173.818 46.545 51.818-29.909c-7.36-17.899-11.632-38.679-11.632-60.454s4.272-42.555 12.025-61.542l-0.392 1.088-51.818-29.909-173.818 46.545-17.635-43.455 134.454-36-56.999-32.909-95.181 25.455-17.635-43.455 55.817-14.909-80.908-46.727 23.273-40.363 80.908 46.727-15-55.817 46.455-6.364 25.545 95.090 56.999 32.909-36.091-134.454 46.545-6.364 46.545 173.726 51.818 29.909c25.368-32.011 62.007-54.128 103.835-60.346l0.892-0.109v-59.818l-127.182-127.182 28.727-37.091 98.455 98.455v-65.818l-69.636-69.636 28.817-37.091 40.817 40.908v-93.454h46.545v93.454l40.817-40.908 28.817 37.091-69.636 69.636v65.818l98.455-98.455 28.727 37.091-127.182 127.182v59.818c42.718 6.325 79.359 28.443 104.468 60.116l0.259 0.338 51.818-29.909 46.545-173.726 46.545 6.364-36.091 134.454 56.999-32.909 25.545-95.090 46.455 6.364-15 55.817 80.908-46.727 23.273 40.363-80.908 46.727 55.817 14.909-17.635 43.455-95.181-25.455-56.999 32.909 134.454 36-17.635 43.455-173.818-46.545-51.818 29.909c7.36 17.899 11.632 38.679 11.632 60.454s-4.272 42.555-12.025 61.542l0.392-1.088 51.818 29.909 173.818-46.545 17.635 43.455-134.454 36 56.999 32.909 95.181-25.455 17.635 43.455-55.817 14.909 80.908 46.727-23.273 40.363-80.908-46.727 15 55.817-46.455 6.364-25.545-95.090-56.999-32.909 36.091 134.454-46.545 6.364-46.545-173.726-51.818-29.909c-25.368 32.011-62.007 54.128-103.835 60.346l-0.892 0.109v59.818l127.182 127.182-28.727 37.091-98.455-98.455v65.818l69.636 69.636-28.817 37.091-40.817-40.908v93.454h-46.545zM508.636 564.276c1.002 0.031 2.18 0.049 3.362 0.049 64.25 0 116.34-52.073 116.364-116.319v-0.002c0-0.079 0-0.172 0-0.266 0-64.265-52.097-116.364-116.364-116.364s-116.364 52.097-116.364 116.364c0 0.092 0 0.187 0 0.28v-0.016c0.023 63.065 50.213 114.399 112.827 116.269l0.172 0.004z" />
<glyph unicode="&#xe909;" glyph-name="heart, february" d="M764.586 906.038c-122.457-0.013-225.081-84.914-252.233-199.065l-0.353-1.762c-27.345 116.136-130.088 201.259-252.711 201.259-143.201 0-259.289-116.088-259.289-259.289 0-0.281 0-0.565 0.001-0.846v0.044c0-322.715 511.999-656.848 511.999-656.848s511.999 334.134 511.999 656.848c0 0.074 0 0.16 0 0.249 0 143.27-116.143 259.413-259.413 259.413 0 0 0 0 0 0v0zM384.279 783.902c-2.294-2.847-5.78-4.655-9.687-4.655-2.916 0-5.595 1.004-7.713 2.688l0.026-0.020c-29.155 23.173-66.5 37.178-107.116 37.178-95.426 0-172.797-77.306-172.9-172.707v-0.010c0.716-36.868 8.218-71.787 21.301-103.836l-0.699 1.932c0.513-1.308 0.809-2.823 0.809-4.407 0-5.273-3.286-9.776-7.923-11.575l-0.085-0.029c-1.29-0.55-2.794-0.87-4.37-0.87-0.035 0-0.070 0-0.103 0h0.005c-5.26 0.036-9.741 3.341-11.515 7.983l-0.029 0.085c-13.427 32.73-21.523 70.682-22.214 110.439l-0.005 0.278c0.164 109.008 88.569 197.312 197.601 197.312 46.515 0 89.275-16.073 123.034-42.965l-0.401 0.309c2.778-2.294 4.535-5.738 4.535-9.592 0-2.847-0.959-5.471-2.571-7.566l0.021 0.029z" />
<glyph unicode="&#xe90a;" glyph-name="gift, december" d="M27.922 736.54h335.131v-204.79h-335.131zM400.29 736.54h71.855l-71.855-93.963zM519.056 736.54h66.911l-157.53-204.79h-28.147v49.52zM660.947 736.54h35.709c0.26-0.013 0.566-0.020 0.872-0.020s0.612 0.007 0.916 0.021l-0.043-0.001c0.272 0.005 0.53 0 0.8 0h296.875v-204.79h-335.131zM623.71 724.61v-93.305l-79.635-99.556h-68.728zM623.71 571.748v-40.001h-31.998zM83.777 494.515h316.512v-558.513h-316.512zM437.527 494.515h76.729l-76.729-95.923zM561.893 494.515h24.581v-68.218l-148.947-193.661v106.397zM623.71 494.515h316.512v-558.513h-316.512zM586.473 365.282v-106.538l-148.947-193.661v106.612zM586.473 197.728v-106.319l-120.872-155.408h-28.077v68.139zM586.473 30.613v-94.611h-73.598zM316.8 959.652c-12.482-1.043-24.963-4.227-36.876-9.6-47.745-21.545-74.179-73.621-63.343-124.865 4.167-19.731 13.611-37.223 26.471-51.416h82.982c-35.124 0.372-65.801 24.978-73.017 59.125-7.262 34.344 10.188 68.836 42.183 83.27 32.087 14.482 69.239 5.038 90.184-23.127 0.021 0 0 0 0 0l89.382-119.265h74.406l87.42 116.649 1.9 2.383c0.026 0 0 0 0 0 20.941 28.166 58.094 37.609 90.184 23.127 31.994-14.434 49.439-48.929 42.183-83.27-7.172-33.907-37.476-58.417-72.291-59.049h82.401c12.806 14.171 22.167 31.665 26.326 51.342 10.832 51.246-15.599 103.321-63.347 124.865-23.824 10.75-49.842 12.546-73.817 6.398v0c-23.895-6.126-45.763-20.12-61.382-41.016v0l-97.747-127.774-95.856 127.774c-15.628 21.020-37.554 35.084-61.529 41.236v0c-11.987 3.053-24.464 4.223-36.942 3.202zM696.656 736.538c0.596-0.038 1.155 0 1.75 0 0.372 0.005 0.521 0 0.819 0z" />
<glyph unicode="&#xe90b;" glyph-name="turkey, november" d="M575.124 701.928c0-21.679 0-42.082-1.275-65.037-20.403 8.926-40.807 12.752-61.21 12.752-21.679 0-42.082-3.826-62.486-12.752-1.275 22.953-1.275 43.358-1.275 65.037 0 3.826 0 8.926 0 12.752 39.532 36.982 86.714 36.982 126.246 0 0-3.826 0-8.926 0-12.752zM512.637 5.659c118.595 0 215.511 68.861 215.511 154.301 0 53.559-36.982 132.622-91.816 187.457 15.303-31.88 24.229-68.861 14.027-100.743l-1.275-3.826-1.275-2.55c-10.201-11.478-26.779-15.303-40.807-11.478-10.201-14.027-33.156-17.853-49.734-12.752-20.403-21.679-70.137-21.679-90.54 0-16.577-5.102-38.256-1.275-49.734 12.752-14.027-3.826-29.33 0-40.807 11.478l-1.275 2.55-1.275 3.826c-10.201 31.88-1.275 68.861 15.303 100.743-56.11-54.834-93.091-133.897-93.091-187.457 0-85.44 96.917-154.301 216.788-154.301zM591.701 552.727c-11.478 0-20.403-8.926-20.403-20.403s8.926-20.403 20.403-20.403c11.478 0 20.403 8.926 20.403 20.403s-8.926 20.403-20.403 20.403zM585.325 551.453c5.102 0 7.651-3.826 7.651-8.926 0-3.826-2.55-7.651-7.651-7.651s-8.926 3.826-8.926 7.651c0 5.102 3.826 8.926 8.926 8.926zM432.299 552.727c11.478 0 20.403-8.926 20.403-20.403s-8.926-20.403-20.403-20.403c-11.478 0-20.403 8.926-20.403 20.403s8.926 20.403 20.403 20.403zM425.923 551.453c-5.102 0-7.651-3.826-7.651-8.926 0-3.826 2.55-7.651 7.651-7.651s8.926 3.826 8.926 7.651c0 5.102-3.826 8.926-8.926 8.926zM548.343 237.748v12.752c0-26.779 48.458-26.779 48.458 0v14.027c0-21.679 26.779-25.504 38.256-12.752 11.478 39.532-11.478 95.641-45.908 133.897 42.082 24.229 71.413 54.834 71.413 117.32s-66.311 130.072-147.925 130.072c-82.888 0-149.2-67.586-149.2-130.072s29.33-93.091 71.413-117.32c-34.431-38.256-57.385-94.366-44.632-133.897 10.201-12.752 36.982-8.926 36.982 12.752v-14.027c0-26.779 48.458-26.779 48.458 0v-12.752c0-28.055 72.687-28.055 72.687 0zM432.299 562.929c16.577 0 30.605-14.027 30.605-30.605s-14.027-29.33-30.605-29.33c-16.577 0-29.33 12.752-29.33 29.33s12.752 30.605 29.33 30.605zM591.701 562.929c16.577 0 29.33-14.027 29.33-30.605s-12.752-29.33-29.33-29.33c-16.577 0-30.605 12.752-30.605 29.33s14.027 30.605 30.605 30.605zM484.582 423.931c22.953-12.752 31.88-11.478 54.834 0v-39.532c0-15.303-12.752-26.779-26.779-26.779v0c-15.303 0-28.055 11.478-28.055 26.779v39.532zM512.637 529.774c12.752 0 24.229-11.478 24.229-24.229v-28.055c38.256-21.679 43.358-19.129 5.102-40.807-29.33-16.577-33.156-16.577-59.935 0-38.256 21.679-33.156 19.129 5.102 40.807v28.055c0 12.752 11.478 24.229 25.504 24.229v0zM591.701 629.241c10.201 20.403 20.403 40.807 30.605 58.66 2.55 3.826 3.826 7.651 6.376 11.478 53.559 11.478 93.091-11.478 109.669-66.311-1.275-3.826-3.826-7.651-6.376-11.478-16.577-30.605-36.982-62.486-57.385-94.366-8.926 44.632-42.082 80.338-82.888 102.017zM674.589 525.949c30.605 21.679 62.486 43.358 91.816 61.21 3.826 1.275 7.651 3.826 11.478 6.376 51.009-17.853 73.962-59.935 62.486-114.77-2.55-2.55-6.376-5.102-10.201-6.376-30.605-19.129-65.037-36.982-99.467-53.559 38.256 2.55 76.512 5.102 112.219 5.102 3.826 0 7.651 0 12.752 0 35.706-42.082 35.706-90.54 0-132.622-5.102 0-8.926 0-12.752 0-35.706 0-73.962 1.275-112.219 5.102 34.431-16.577 68.861-35.706 99.467-53.559 3.826-2.55 7.651-5.102 10.201-7.651 11.478-54.834-11.478-95.641-62.486-113.495-3.826 1.275-7.651 3.826-11.478 6.376-7.651 3.826-15.303 8.926-22.953 14.027 1.275 6.376 1.275 11.478 1.275 17.853 0 68.861-48.458 151.751-96.917 198.934l-28.055 26.779c38.256 28.055 57.385 63.761 57.385 117.32 0 7.651-1.275 15.303-2.55 22.953zM280.548 142.107c-7.651-5.102-15.303-10.201-22.953-14.027-3.826-2.55-7.651-5.102-11.478-6.376-51.009 17.853-73.962 58.66-62.486 113.495 2.55 2.55 6.376 5.102 10.201 7.651 30.605 17.853 65.037 36.982 99.467 53.559-36.982-3.826-76.512-5.102-112.219-5.102-3.826 0-7.651 0-11.478 0-36.982 42.082-36.982 90.54 0 132.622 3.826 0 7.651 0 11.478 0 35.706 0 75.238-2.55 112.219-5.102-34.431 16.577-68.861 34.431-99.467 53.559-3.826 1.275-7.651 3.826-10.201 6.376-11.478 54.834 11.478 96.917 62.486 114.77 3.826-2.55 7.651-5.102 11.478-6.376 29.33-17.853 61.21-39.532 91.816-61.21-1.275-7.651-2.55-15.303-2.55-22.953 0-53.559 19.129-89.265 57.385-117.32l-28.055-26.779c-48.458-47.183-96.917-130.072-96.917-198.934 0-6.376 0-11.478 1.275-17.853zM349.411 527.223c-20.403 31.88-40.807 63.761-57.385 94.366-2.55 3.826-3.826 7.651-6.376 11.478 16.577 54.834 56.11 77.789 109.669 66.311 2.55-3.826 5.102-7.651 6.376-11.478 10.201-17.853 20.403-38.256 30.605-58.66-40.807-21.679-73.962-57.385-82.888-102.017zM751.104 659.846c84.165 175.98-2.55 228.263-107.119 65.037 49.734 5.102 87.99-17.853 107.119-65.037zM864.598 494.068c156.852 109.669 107.119 198.934-62.486 112.219 45.908-20.403 68.861-59.935 62.486-112.219zM882.451 292.584c188.733 12.752 188.733 116.045 0 130.072 30.605-42.082 30.605-89.265 0-130.072zM802.112 107.676c169.604-86.714 219.337 3.826 62.486 112.219 6.376-51.009-16.577-91.816-62.486-112.219zM221.888 107.676c-169.604-86.714-219.337 3.826-62.486 112.219-5.102-51.009 16.577-91.816 62.486-112.219zM141.549 292.584c-188.733 12.752-188.733 116.045 0 130.072-30.605-42.082-30.605-89.265 0-130.072zM159.402 494.068c-156.852 109.669-107.119 198.934 62.486 112.219-45.908-20.403-67.586-59.935-62.486-112.219zM272.896 659.846c-82.888 175.98 2.55 228.263 107.119 65.037-48.458 5.102-87.99-17.853-107.119-65.037zM450.152 744.010c12.752 195.109 112.219 195.109 123.696 0-39.532 30.605-84.165 30.605-123.696 0z" />
<glyph unicode="&#xe90c;" glyph-name="location" d="M511.978 928v0c-203.35-4.29-364.95-172.3-361.743-374.586v-2.13c0-69.57 19.269-138.063 56.73-197.991l260.070-361.743c10.71-14.971 27.816-23.55 44.957-23.55 10.71 0 22.47 3.21 32.113 9.63 5.359 3.21 9.63 8.55 12.844 12.844l229.039 318.93 31.050 42.81c36.39 59.928 55.65 128.43 56.73 197.991v2.13c3.21 203.35-158.393 371.37-361.743 375.649zM511.978 362.907c-112.372 0-203.35 90.98-203.35 203.35s90.98 203.35 203.35 203.35c112.372 0 203.35-90.98 203.35-203.35s-90.98-203.35-203.35-203.35z" />
<glyph unicode="&#xe90d;" glyph-name="freezer, frozen" d="M998.51 473.464h-126.171l58.164 58.164c9.946 9.946 9.946 26.066 0 36.007s-26.066 9.946-36.007 0l-94.173-94.173h-74.627l-81.91 29.134 37.335 78.537 52.753 52.74h133.186c14.055 0 25.465 11.41 25.465 25.465s-11.41 25.465-25.465 25.465h-82.254l89.219 89.219c9.946 9.946 9.946 26.066 0 36.007s-26.066 9.946-36.007 0l-89.219-89.219v82.254c0 14.055-11.41 25.465-25.465 25.465s-25.465-11.41-25.465-25.465v-133.186l-52.766-52.766-78.524-37.321-29.134 81.938v74.59l94.173 94.184c9.946 9.946 9.946 26.066 0 36.007s-26.066 9.946-36.007 0l-58.164-58.164v126.171c0 14.055-11.397 25.465-25.465 25.465-14.055 0-25.465-11.41-25.465-25.465v-126.158l-58.164 58.164c-9.933 9.946-26.079 9.946-36.007 0-9.946-9.946-9.946-26.066 0-36.007l94.173-94.173v-74.6l-29.147-81.938-78.51 37.308-52.766 52.766v133.186c0 14.055-11.41 25.465-25.465 25.465s-25.465-11.41-25.465-25.465v-82.242l-89.206 89.206c-9.933 9.946-26.079 9.946-36.007 0-9.946-9.946-9.946-26.066 0-36.007l89.219-89.219h-82.254c-14.055 0-25.465-11.41-25.465-25.465s11.41-25.465 25.465-25.465h133.186l52.74-52.74 37.321-78.537-81.961-29.147c-0.050 0-0.101 0.013-0.154 0.013h-74.409l-94.173 94.173c-9.933 9.946-26.079 9.946-36.007 0-9.946-9.946-9.946-26.066 0-36.007l58.177-58.164h-126.171c-14.055 0-25.465-11.41-25.465-25.465s11.41-25.465 25.465-25.465h126.171l-58.164-58.15c-9.946-9.946-9.946-26.066 0-36.007 4.965-4.978 11.487-7.46 18.005-7.46s13.038 2.481 18.005 7.46l94.173 94.161h74.409c0.050 0 0.101 0.013 0.154 0.013l81.974-29.147-37.321-78.537-52.753-52.753h-133.201c-14.055 0-25.465-11.41-25.465-25.465s11.41-25.465 25.465-25.465h82.242l-89.206-89.206c-9.946-9.946-9.946-26.066 0-36.007 4.978-4.978 11.487-7.46 18.005-7.46s13.038 2.481 18.005 7.46l89.206 89.206v-82.254c0-14.055 11.41-25.465 25.465-25.465s25.465 11.41 25.465 25.465v133.186l52.753 52.753 78.524 37.335 29.147-81.924v-74.6l-94.173-94.173c-9.946-9.946-9.946-26.066 0-36.007 4.965-4.978 11.487-7.46 18.005-7.46s13.038 2.481 18.005 7.46l58.164 58.15v-126.158c0-14.055 11.41-25.465 25.465-25.465 14.069 0 25.465 11.41 25.465 25.465v126.171l58.164-58.164c4.978-4.978 11.487-7.46 18.005-7.46s13.024 2.481 18.005 7.46c9.946 9.946 9.946 26.066 0 36.007l-94.173 94.173v74.59l29.134 81.938 78.537-37.335 52.753-52.753v-133.186c0-14.055 11.41-25.465 25.465-25.465s25.465 11.41 25.465 25.465v82.269l89.219-89.206c4.978-4.978 11.487-7.46 18.005-7.46s13.024 2.481 18.005 7.46c9.946 9.946 9.946 26.066 0 36.007l-89.206 89.206h82.242c14.055 0 25.465 11.41 25.465 25.465s-11.41 25.465-25.465 25.465h-133.186l-52.753 52.753-37.335 78.537 81.924 29.12h74.6l94.173-94.173c4.978-4.978 11.487-7.46 18.005-7.46s13.024 2.481 18.005 7.46c9.946 9.946 9.946 26.079 0 36.007l-58.15 58.164h126.171c14.055 0 25.465 11.41 25.465 25.465s-11.41 25.465-25.465 25.465zM600.146 431.943c-6.787-2.417-12.237-7.601-15.001-14.247-2.764-6.659-2.559-14.174 0.523-20.679l20.575-43.294-43.294 20.575c-6.518 3.096-14.033 3.287-20.679 0.523s-11.828-8.214-14.247-15.001l-16.056-45.163-16.069 45.163c-2.404 6.787-7.586 12.237-14.247 15.001-3.118 1.3-6.432 1.936-9.742 1.936-3.744 0-7.473-0.813-10.924-2.458l-43.294-20.575 20.575 43.294c3.096 6.505 3.287 14.018 0.537 20.679-2.749 6.646-8.214 11.828-15.001 14.247l-45.176 16.056 45.163 16.069c6.787 2.404 12.237 7.586 14.988 14.247 2.764 6.646 2.573 14.174-0.537 20.679l-20.575 43.294 43.294-20.575c6.505-3.096 14.018-3.287 20.679-0.537s11.843 8.214 14.247 14.988l16.082 45.176 16.056-45.163c2.417-6.787 7.601-12.237 14.247-15.001 6.633-2.749 14.16-2.545 20.679 0.537l43.294 20.575-20.575-43.294c-3.081-6.505-3.287-14.018-0.523-20.679s8.214-11.843 15.001-14.247l45.163-16.069-45.163-16.056z" />
<glyph unicode="&#xe90e;" glyph-name="steam_heart" d="M457.2 309.033c-211.957 200.8-390.59 462.5-148.64 571.655 68.212 30.771 273.073 9.504 265.563-138.357-8.361-164.547-248.22-94.817-83.672 94.818-8.364 8.361-19.056 7.764-33.467-2.785-187.091-136.963-29.321-339.128 104.519-225.433 169.697 144.161-28.746 394.482-260.911 344.597-257.337-55.303-317.625-369.632 156.61-644.5zM699.316 465.825c-183.336-158.872-458.481-322.416-351.739-529.825-11.917 250.949 316.019 352.559 482.296 569.64 230.986 301.563-23.392 551.009-266.912 406.817 0 0 2.785-13.943 16.736-19.525 231.832 106.256 384.113-197.92 119.613-427.11z" />
<glyph unicode="&#xe90f;" glyph-name="grill, bbq" d="M872.494 681.264h-720.985c-23.98 0-43.444-19.703-43.444-43.444 0-23.98 19.467-43.68 43.444-43.68h14.963c12.43-98.324 65.779-183.867 142.364-239.027l-139.337-298.071c-8.288-17.851-0.638-39.102 17.213-47.389 18.501-8.042 39.055-0.316 47.389 17.213l83.013 177.778 159.271-63.067v-169.968c0-19.672 15.941-35.61 35.61-35.61 19.672 0 35.61 15.938 35.61 35.61v169.968l159.437 63.132 82.973-177.844c7.852-17.104 28.517-25.415 47.389-17.213 17.638 8.288 25.501 29.539 17.216 47.389l-139.347 298.361c76.475 55.216 129.741 140.642 142.16 238.736h15.059c23.741 0 43.444 19.703 43.444 43.68 0 23.741-19.702 43.447-43.443 43.447zM547.608 218.172v243.080c0 19.672-15.938 35.61-35.61 35.61s-35.61-15.941-35.61-35.61v-243.080l-129.088 51.114 23.563 50.344c20.108-8.918 41.097-16.204 62.996-21.183v162.779c0 43.139 35.064 78.205 78.202 78.205 42.927 0 77.99-35.064 77.99-78.205v-162.779c22.037 5.045 43.151 12.413 63.373 21.434l23.457-50.521-129.274-51.189zM512 806.418v0c14.836 0 26.86 12.026 26.86 26.86v99.861c0 14.836-12.026 26.86-26.86 26.86v0c-14.836 0-26.86-12.026-26.86-26.86v-99.861c0-14.836 12.026-26.86 26.86-26.86zM607.261 880.72v-99.859c0-14.836 12.026-26.86 26.86-26.86v0c14.836 0 26.86 12.026 26.86 26.86v99.859c0 14.836-12.026 26.86-26.86 26.86v0c-14.836 0-26.86-12.026-26.86-26.86zM389.881 770.958v0c14.836 0 26.86 12.026 26.86 26.86v99.859c0 14.836-12.026 26.86-26.86 26.86v0c-14.836 0-26.86-12.026-26.86-26.86v-99.859c0-14.836 12.026-26.86 26.86-26.86z" />
<glyph unicode="&#xe910;" glyph-name="pumpkin, october" d="M592.818 722.708c-7.754 5.325-15.705 9.858-23.786 13.579-3.648-17.099-8.051-33.972-12.776-50.257 10.562 14.398 22.83 26.76 36.561 36.679zM506.167 758.363c4.606-27.899 5.39-56.371 6.149-83.907 0.563-20.446 1.106-40.195 3.228-58.094 0.418 1.226 0.84 2.464 1.262 3.706 12.627 37.062 28.338 83.185 37.36 129.929 19.522 100.404 0.664 167.256-57.652 204.326-13.298 3.819-25.191 5.677-36.323 5.677-32.966 0-58.69-16.559-82.369-53.383 97.955-31.277 120.222-99.164 128.346-148.255zM743.516 601.542c-15.515 5.755-31.439 8.683-47.282 8.683-36.791 0-72.39-15.394-103.381-44.576 79.312-47.385 131.937-161.235 131.937-287.839 0-95.121-30.063-185.495-80.791-244.211 16.911-7.040 34.452-10.645 52.235-10.645 53.955 0 104.247 32.54 141.611 91.624 34.783 54.839 53.937 126.581 53.937 202.018 0 134.847-60.969 252.021-148.266 284.947zM763.817 611.594c86.254-42.046 145.274-160.387 145.274-294.998 0-71.415-16.616-139.776-46.979-194.85 81.033 20.958 142.185 127.744 142.185 254.055 0 128.669-63.829 238.475-148.474 255.421-0.078 0.015-0.154 0.032-0.231 0.047-6.877 1.575-14.455 2.373-22.519 2.373-23.894 0-47.581-7.601-69.255-22.049zM430.738 722.405c29.102-20.554 51.847-51.651 65.942-89.553-0.891 13.217-1.279 27.008-1.669 41.129-0.667 24.175-1.377 49.080-4.691 73.244-20.619-3.41-40.588-11.72-59.584-24.82zM534.116 587.083c14.539-2.185 28.844-6.491 42.684-12.903 35.19 34.891 76.43 53.353 119.432 53.353 16.332 0 32.694-2.767 48.719-8.174 26.906 20.673 57.269 31.595 88.119 31.595 1.54 0 3.047-0.065 4.558-0.116-55.898 64.92-129.648 95.463-192.301 78.249-11.666-3.259-22.763-8.027-32.944-14.163-40.018-23.976-68.232-70.265-78.269-127.84zM170.643 121.735c-30.305 55.117-46.888 123.485-46.888 194.86 0 134.776 58.982 253.138 145.146 295.022-21.757 14.604-44.988 22.025-69.251 22.025-14.877 0-29.55-2.852-43.615-8.478-75.213-29.983-127.736-132.524-127.736-249.363-0.003-126.33 61.222-233.136 142.344-254.066zM289.147 601.524c-87.176-32.759-148.084-149.93-148.084-284.929 0-75.389 19.111-147.132 53.812-202.018 37.354-59.084 87.639-91.624 141.598-91.624 15.494 0 30.82 2.773 45.727 8.165-52.146 58.759-82.983 149.812-82.983 246.691 0 67.031 14.34 130.877 41.473 184.635 24.539 48.619 57.468 85.057 95.716 106.244-30.142 27.189-64.467 41.533-99.93 41.533-15.851 0.003-31.774-2.925-47.328-8.697zM287.753 619.359c16.036 5.409 32.391 8.174 48.719 8.174 41.89 0 82.081-17.546 116.609-50.731 12.557 5.193 25.327 8.691 38.147 10.493-10.45 57.204-39.314 103.256-80.060 127.182-10.738 6.428-22.332 11.323-34.528 14.596-65.757 17.598-142.141-13.638-200.154-80.184 7.64 1.348 15.372 2.062 23.161 2.062 30.839 0 61.2-10.922 88.107-31.592zM997.34-2.976h-427.851c19.591 9.084 38.211 22.828 55.272 41.025 51.798 55.225 82.721 144.854 82.721 239.761 0 125.205-53.007 236.804-131.898 277.7-16.504 8.554-33.781 13.709-51.365 15.364-0.019 0-0.037-0.004-0.054-0.004-0.533 0-1.045 0.062-1.551 0.154-5.942 0.511-12.584 0.592-20.298 0.080-0.349-0.046-0.692-0.108-1.052-0.108-0.046 0-0.087 0.014-0.133 0.014-15.26-1.233-30.59-5.261-45.554-11.969-0.494-0.289-1.002-0.523-1.532-0.707-38.53-18.148-73.301-54.93-97.909-103.684-25.917-51.349-39.617-112.501-39.617-176.835 0-97.241 32.1-188.002 85.919-243.082 0.327-0.249 0.642-0.523 0.941-0.826 15.874-16.137 33.096-28.497 51.165-36.88h-427.882c-4.779 0-8.654-3.875-8.654-8.654s3.875-8.654 8.654-8.654h970.675c4.779 0 8.654 3.875 8.654 8.654s-3.875 8.654-8.654 8.654zM840.346-46.691h-656.56c-4.779 0-8.654-3.875-8.654-8.654s3.875-8.654 8.654-8.654h656.562c4.779 0 8.654 3.875 8.654 8.654s-3.877 8.654-8.657 8.654z" />
<glyph unicode="&#xe911;" glyph-name="summer, august" d="M523.974 237.571c-9.699 0-18.319 0-28.018-1.078-19.398 86.211-63.581 229.538-155.18 364.243 60.347 26.942 134.705 15.087 209.062-46.339 9.699-7.543 22.631 2.154 19.398 12.931-23.707 84.057-87.289 145.482-157.336 157.336 39.872 15.087 93.754 20.475 160.569 20.475 11.854 0 17.242 15.087 7.543 22.631-78.668 60.347-183.198 71.124-255.4 36.64 7.543 24.786 19.398 49.571 34.483 74.357 6.465 10.776-3.233 22.631-15.087 18.319-59.271-23.707-106.687-70.047-128.24-123.929-62.504 12.931-137.939 0-199.364-40.951-10.776-7.543-4.311-23.707 8.622-22.631 32.329 3.233 65.736 2.154 96.987-5.389-72.201-38.794-126.083-131.472-121.773-232.771 0-11.854 16.165-16.165 22.631-6.465 33.407 49.571 75.435 93.754 117.464 119.618-36.64-62.504-29.096-149.793 15.087-218.762 6.465-10.776 22.631-5.389 22.631 6.465 2.154 98.065 38.794 165.957 95.911 189.665 73.28-123.929 89.444-252.168 88.367-341.612-172.422-37.718-242.469-130.394-242.469-177.811 0-61.425 807.153-59.271 807.153 6.465s-110.997 188.587-403.038 188.587zM900.071 476.807c0-50.59-41.010-91.6-91.6-91.6s-91.6 41.010-91.6 91.6c0 50.59 41.010 91.6 91.6 91.6s91.6-41.010 91.6-91.6zM808.471 597.503c14.010 0 24.786 10.776 24.786 24.786v46.339c0 14.010-10.776 24.786-24.786 24.786s-24.786-10.776-24.786-24.786v-46.339c0-14.010 10.776-24.786 24.786-24.786zM688.853 561.94c4.311-4.311 10.776-7.543 17.242-7.543s12.931 2.154 17.242 7.543c9.699 9.699 9.699 24.786 0 34.483l-32.329 32.329c-9.699 9.699-24.786 9.699-34.483 0s-9.699-24.786 0-34.483l32.329-32.329zM617.73 452.022h45.26c14.010 0 24.786 10.776 24.786 24.786s-10.776 24.786-24.786 24.786h-46.339c-14.010 0-24.786-10.776-24.786-24.786s11.854-24.786 25.864-24.786zM688.853 391.674l-32.329-32.329c-9.699-9.699-9.699-24.786 0-34.483 4.311-4.311 10.776-7.543 17.242-7.543s12.931 2.154 17.242 7.543l32.329 32.329c9.699 9.699 9.699 24.786 0 34.483s-25.864 9.699-34.483 0zM783.685 332.404v-46.339c0-14.010 10.776-24.786 24.786-24.786s24.786 10.776 24.786 24.786v46.339c0 14.010-10.776 24.786-24.786 24.786-14.010-1.078-24.786-11.854-24.786-24.786zM928.089 391.674c-9.699 9.699-24.786 9.699-34.483 0s-9.699-24.786 0-34.483l32.329-32.329c4.311-4.311 10.776-7.543 17.242-7.543s12.931 2.154 17.242 7.543c9.699 9.699 9.699 24.786 0 34.483l-32.329 32.329zM999.214 501.593h-46.339c-14.010 0-24.786-10.776-24.786-24.786s10.776-24.786 24.786-24.786h46.339c14.010 0 24.786 10.776 24.786 24.786s-10.776 24.786-24.786 24.786zM910.847 554.397c6.465 0 12.931 2.154 17.242 7.543l32.329 32.329c9.699 9.699 9.699 24.786 0 34.483s-24.786 9.699-34.483 0l-32.329-32.329c-9.699-9.699-9.699-24.786 0-34.483 4.311-4.311 10.776-7.543 17.242-7.543z" />
<glyph unicode="&#xe912;" glyph-name="sun, june" d="M889.293 589.457l47.157 143.953-151.363 7.044c-4.136 0.194-7.578 3.246-8.265 7.327l-25.147 149.34-137.275-64.198c-3.752-1.759-8.221-0.653-10.73 2.647l-91.672 120.693-91.726-120.696c-2.507-3.301-6.974-4.405-10.728-2.646l-137.221 64.197-25.146-149.339c-0.689-4.081-4.127-7.133-8.263-7.327l-151.362-7.044 47.154-143.953c1.289-3.936-0.344-8.238-3.918-10.33l-130.786-76.49 108.683-105.546c2.972-2.887 3.526-7.457 1.333-10.968l-80.257-128.49 145.322-43.057c3.972-1.177 6.583-4.962 6.274-9.092l-11.338-151.083 148.591 29.53c0.574 0.116 1.15 0.169 1.718 0.169 3.45 0 6.654-2.037 8.067-5.301l60.206-139.060 117.879 95.142c3.225 2.603 7.824 2.603 11.046 0l117.879-95.142 60.206 139.060c1.647 3.801 5.736 5.95 9.785 5.131l148.591-29.53-11.335 151.085c-0.313 4.127 2.302 7.916 6.27 9.090l145.324 43.057-80.26 128.49c-2.194 3.513-1.64 8.083 1.33 10.968l108.684 105.546-130.786 76.49c-3.576 2.092-5.209 6.394-3.921 10.33zM511.999 157.462c-160.293 0-290.703 130.43-290.703 290.753 0 160.264 130.409 290.65 290.703 290.65 160.291 0 290.701-130.386 290.701-290.65 0-160.322-130.409-290.753-290.701-290.753zM511.999 721.275c-150.594 0-273.112-122.494-273.112-273.059 0-150.622 122.518-273.162 273.112-273.162s273.111 122.54 273.111 273.162c0 150.567-122.518 273.059-273.111 273.059z" />
<glyph unicode="&#xe913;" glyph-name="video" d="M512-32c265.109 0 480 214.893 480 480 0 265.094-214.893 480-480 480s-480-214.906-480-480c0-265.109 214.893-480 480-480zM376.404 651.671l352.804-203.684-352.804-203.684v407.371z" />
<glyph unicode="&#xe914;" glyph-name="measuring_cup" d="M210.162 889.028v0c-108.039-4.798-177.294-15.397-175.672-32.867 10.832-60.651 22.606-111.432 51.163-150.263 18.118-24.264 33.133-48.773 51.163-66.867v-463.929c0.004-94.184 76.354-170.53 170.54-170.53h306.977c94.189 0 170.538 76.351 170.54 170.53v613.927h70.146c17.728-0.021 31.958-14.459 32.045-32.267l0.545-216.465 5.597-5.533c25.067-25.188 65.731-25.188 90.801 0l5.529 5.533-0.545 286.596c0 35.616-28.772 64.526-64.221 64.532-244.852-10.050-496.413 0.615-714.611-2.39zM631.384 772.635h34.241v-648.527h-34.241v51.133h-136.437v34.267h136.437v51.133h-68.216v34.001h68.216v51.402h-136.437v34.063h136.437v51.133h-68.216v34.267h68.216v51.133h-136.437v34.001h136.437v51.402h-68.216v34.063h68.216v51.133h-136.437v34.267h136.437z" />
<glyph unicode="&#xe915;" glyph-name="tablespoon" d="M397.716 487.178c-10.946 37.349-45.12 64.887-86.057 64.887-2.709 0-5.289-0.581-7.968-0.836-10.45 38.172-45.036 66.405-86.526 66.405-41.334 0-75.791-28.033-86.398-65.95-1.248 0.071-2.411 0.398-3.701 0.398-40.924 0-75.096-27.523-86.043-64.887h356.694zM442.88 456.323h-442.88c0-80.868 99.118-177.958 221.447-177.958 90.353 0 167.961 48.608 202.361 109.865 84.314-2.737 396.271-12.762 484.555-12.762 102.392 0 115.637 80.868 115.637 80.868h-581.119z" />
<glyph unicode="&#xe916;" glyph-name="cooler, session-type-remote_pickup_private" d="M61.777 80.397c7.185-67.054 64.661-119.739 131.714-119.739h641.807c69.45 0 124.531 52.686 131.714 119.739l40.712 433.461h-989.055l43.106-433.461zM878.405 679.098v160.452c0 52.686-43.106 95.793-95.793 95.793h-538.832c-52.686 0-95.793-43.106-95.793-95.793v-213.137h-26.344v45.501c-55.081-14.369-95.793-59.87-105.372-117.346h991.45c-7.185 67.054-62.265 117.346-129.319 124.531zM813.746 688.677v-59.87h-26.344v50.289h-572.359v160.452c0 16.764 11.973 28.737 28.737 28.737h538.832c16.764 0 28.737-11.973 28.737-28.737v-150.872z" />
<glyph unicode="&#xe917;" glyph-name="send_love" d="M499.001 582.288v-646.287l-398.659 114.296v329.295l311.662-17.848 86.998 220.545zM904.531 597.044l-374.076 22.836 92.714-237.424 374.089 22.836-92.726 191.752zM524.999 582.288l86.998-220.545 311.64 17.848v-329.295l-398.638-114.296v646.287zM119.445 597.044l-92.704-191.752 374.1-22.836 92.691 237.424zM501.476 723.585c-74.227 73.68-138.581 119.397-138.581 173.241 0 78.175 102.211 82.512 138.581 20.132 36.098 61.925 138.581 58.307 138.581-20.132 0.023-53.833-64.321-99.551-138.581-173.241zM748.739 627.276c-60.645 60.2-113.234 97.565-113.234 141.56 0 63.876 83.517 67.424 113.234 16.445 29.49 50.602 113.234 47.648 113.234-16.445 0.011-43.984-52.554-81.348-113.234-141.56zM261.793 811.439c-35.778 35.516-66.797 57.553-66.797 83.505 0 37.684 49.268 39.772 66.797 9.7 17.393 29.855 66.797 28.109 66.797-9.7 0.011-25.94-31.008-47.977-66.797-83.505zM397.852 704.161c0 64.092-83.745 67.049-113.234 16.445-29.719 50.98-113.234 47.43-113.234-16.445 0-27.47 20.508-52.36 50.671-81.839l133.298 8.137c25.632 26.010 42.511 48.8 42.5 73.701z" />
<glyph unicode="&#xe918;" glyph-name="health, healthy" d="M908.557 621.827c-39.544 55.899-91.351 96.814-163.627 106.358-36.812 5.452-70.904 4.092-106.358-10.904-24.539-12.275-51.819-21.817-79.088-31.361-12.275-4.092-24.539-6.823-35.452-6.823 10.904 53.179 43.635 137.718 144.529 170.439 19.087 6.823 20.458 24.539 14.995 42.264s-13.635 25.909-32.721 20.458c-21.817-6.823-72.265-64.081-110.448-129.535-14.995 99.535-96.814 178.621-239.983 177.262 16.365-114.54 130.895-209.983 227.708-197.708-14.995-27.269-27.269-55.899-34.092-81.808-8.183 1.36-14.995 4.092-23.177 6.823-25.909 9.543-53.179 20.458-79.088 32.721-34.092 16.365-69.544 17.727-106.358 12.275-70.904-9.543-122.712-49.087-164.987-104.985-64.081-85.9-79.088-181.354-62.721-283.608 14.995-91.351 50.447-175.891 96.814-256.339 23.177-40.904 50.447-77.716 87.26-107.717 34.092-27.269 70.904-40.904 115.9-40.904 85.9-1.36 110.448 36.812 149.981 35.452 38.184 0 62.721-38.184 149.981-38.184 44.996 0 83.179 12.275 115.9 39.544 36.812 30 65.454 66.813 89.991 106.358 47.727 80.448 84.539 163.627 100.906 254.978 19.087 102.265 5.452 199.068-55.899 284.979zM680.849 325.945c-2.731-4.092-5.452-8.183-8.183-10.904-38.184-50.447-107.717-89.991-162.256-133.627-53.179 44.996-122.712 84.539-159.535 136.347-2.731 2.731-5.452 8.183-6.823 10.904-10.904 19.087-19.087 39.544-17.727 62.721 0 50.447 42.264 89.991 95.443 89.991 47.727 0 92.723-35.452 92.723-61.361 1.36 25.909 46.356 61.361 94.083 61.361 51.819 0 92.723-40.904 92.723-91.351-2.731-24.539-9.543-44.996-20.458-64.081z" />
<glyph unicode="&#xe919;" glyph-name="invitation" d="M1023.945-39.122v571.373c0 0.013 0 0.024 0 0.038 0 3.597-0.771 7.013-2.157 10.095l0.064-0.156-0.74 1.355c-0.6 1.24-1.215 2.29-1.902 3.285l0.054-0.083-1.231 1.478-3.079 3.079-131.297 108.632v157.532c0 13.606-11.028 24.633-24.633 24.633v0h-195.467l-135.484 112.205c-4.229 3.518-9.718 5.655-15.705 5.655s-11.475-2.137-15.743-5.686l-136.060-112.172h-195.467c-13.606 0-24.633-11.028-24.633-24.633v0-157.532l-132.158-109.496-2.339-2.339-1.231-1.478c-0.633-0.913-1.248-1.962-1.783-3.057l-0.065-0.146-0.74-1.355c-1.323-2.924-2.094-6.342-2.094-9.938 0-0.014 0-0.028 0-0.040v0.001-571.496c0-13.606 11.028-24.633 24.633-24.633v0h974.622c0 0 0.001 0 0.001 0 13.606 0 24.633 11.028 24.633 24.633 0 0.088 0 0.173-0.001 0.26v-0.014zM959.527 533.238l-75.872-56.533v119.104zM512.061 903.725l73.9-61.583h-147.8zM834.39 792.873v-352.874l-322.329-240.299-322.329 240.299v352.874zM140.465 595.806v-119.349l-75.872 56.533zM49.323-14.733v497.966l96.439-72.176c2.745-3.555 6.367-6.307 10.549-7.947l0.166-0.058 340.804-253.847c4.053-3.048 9.173-4.881 14.718-4.881s10.664 1.833 14.782 4.927l-0.064-0.045 340.928 254.217c4.348 1.699 7.97 4.451 10.674 7.949l0.043 0.058 96.316 71.806v-497.719zM487.428 404.897h49.267v89.296h89.296v49.267h-89.296v89.296h-49.267v-89.296h-89.296v-49.267h89.296v-89.296z" />
<glyph unicode="&#xe91a;" glyph-name="calendar_add" d="M944.402 232.225c-2.179 7.843-9.255 13.522-17.67 13.522-1.792 0-3.526-0.258-5.152-0.736l0.129 0.032c-78.345-21.97-114.213-101.408-129.954-157.411-17.312 19.736-40.141 34.243-66.065 41.159l-0.928 0.217c-1.158 0.255-2.479 0.403-3.846 0.403-10.336 0-18.71-8.371-18.71-18.71 0-8.971 6.304-16.466 14.742-18.274l0.121-0.030c27.582-7.52 49.632-26.697 60.896-51.758l0.23-0.591c3.241-7.922 10.848-13.425 19.748-13.538h2.208c9.593 1.010 17.252 8.177 19.017 17.44l0.029 0.137c6.229 32.944 32.223 142.411 112.030 164.742 8.127 1.983 14.058 9.199 14.058 17.811 0 2.016-0.325 3.936-0.928 5.752l0.032-0.129zM915.482 315.315v479.944c0 50.541-40.981 91.524-91.524 91.524v0h-54.914v18.304c0 30.327-24.588 54.914-54.914 54.914v0h-36.61c-30.327 0-54.914-24.588-54.914-54.914v0-20.507h-329.482v20.507c0 30.327-24.588 54.914-54.914 54.914v0h-36.61c-30.327 0-54.914-24.588-54.914-54.914v0-18.304h-54.914c-50.541 0-91.524-40.981-91.524-91.524v0-732.182c0-50.541 40.981-91.524 91.524-91.524v0h616.861c31.89-22.24 71.455-35.552 114.128-35.552 111.006 0 200.989 89.983 200.989 200.989 0 77.117-43.427 144.096-107.168 177.792l-1.095 0.533zM659.219 905.088c0 10.107 8.197 18.304 18.304 18.304v0h36.61c10.107 0 18.304-8.197 18.304-18.304v0-73.218c0-10.107-8.197-18.304-18.304-18.304v0h-36.61c-10.107 0-18.304 8.197-18.304 18.304v0zM183.3 905.088c0 10.107 8.197 18.304 18.304 18.304v0h36.61c10.107 0 18.304-8.197 18.304-18.304v0-73.218c0-10.107-8.197-18.304-18.304-18.304v0h-36.61c-10.107 0-18.304 8.197-18.304 18.304v0zM91.777 850.174h54.914v-18.304c0-30.327 24.588-54.914 54.914-54.914v0h36.61c30.327 0 54.914 24.588 54.914 54.914v0 16.102h329.482v-16.102c0-30.327 24.588-54.914 54.914-54.914v0h36.61c30.327 0 54.914 24.588 54.914 54.914v0 18.304h54.914c30.327 0 54.914-24.588 54.914-54.914v0-54.914h-842.009v54.914c0 30.327 24.588 54.914 54.914 54.914v0zM36.863 63.082v640.66h842.009v-373.782c-10.503 3.401-22.898 6.107-35.68 7.592l-0.93 0.096v274.569c0 30.327-24.588 54.914-54.914 54.914v0h-658.964c-30.327 0-54.914-24.588-54.914-54.914v0-512.527c0-30.327 24.588-54.914 54.914-54.914v0h516.191c7.222-13.92 15.256-25.924 24.418-36.938l-0.266 0.328h-576.953c-30.327 0-54.914 24.588-54.914 54.914v0zM695.828 291.523v46.122h109.828c-42.272-4.167-80.014-20.896-110.115-46.368l0.288 0.24zM128.386 81.386c-10.107 0-18.304 8.197-18.304 18.304v0 91.524h109.828v-109.828zM366.345 630.519v-109.828h-109.828v109.828zM659.219 251.99c-4.952-6.904-9.812-14.816-14.112-23.052l-0.534-1.12h-95.188v109.828h109.828zM366.345 374.254h-109.828v109.828h109.828zM402.955 484.082h109.828v-109.828h-109.828zM219.91 374.254h-109.828v109.828h109.828zM110.082 337.644h109.828v-109.828h-109.828zM256.517 337.644h109.828v-109.828h-109.828zM402.955 337.644h109.828v-109.828h-109.828zM549.392 374.254v109.828h109.828v-109.828zM695.828 484.082h109.828v-109.828h-109.828zM805.657 520.692h-109.828v109.828h91.524c10.107 0 18.304-8.197 18.304-18.304v0zM659.219 630.519v-109.828h-109.828v109.828zM512.783 630.519v-109.828h-109.828v109.828zM219.91 520.692h-109.828v91.524c0 10.107 8.197 18.304 18.304 18.304v0h91.524zM256.517 191.209h109.828v-109.828h-109.828zM402.955 81.386v109.828h109.828v-109.828zM549.392 81.386v109.828h80.167c-4.96-16.447-7.81-35.352-7.81-54.914s2.848-38.467 8.16-56.305l-0.352 1.391zM822.859-28.437c-90.514 0.617-163.64 74.145-163.64 164.735 0 90.976 73.761 164.742 164.742 164.742s164.74-73.761 164.742-164.735v0c0-90.976-73.761-164.742-164.742-164.742v0z" />
<glyph unicode="&#xe91b;" glyph-name="pdf" d="M847.816 851.058c1.411-1.615 3.458-2.538 5.597-2.538 2.161 0 4.188 0.922 5.621 2.538l51.769 52.201c1.957 2.218 2.435 5.358 1.229 8.056-1.229 2.674-3.914 4.403-6.861 4.403h-18.557v36.796c0.011 4.142-3.322 7.486-7.464 7.486h-51.461c-4.142 0-7.486-3.344-7.486-7.486v-36.796h-18.546c-2.947 0-5.632-1.729-6.838-4.403-1.218-2.697-0.717-5.836 1.229-8.056l51.769-52.201zM599.338 494.842c-21.401 23.86-42.542 50.517-61.576 74.501-8.976 11.332-17.567 22.142-25.6 31.96l-0.592 0.717c11.765 33.507 18.489 60.928 19.99 81.522 3.811 52.463-2.049 86.256-17.897 103.288-10.707 11.525-26.783 15.542-41.904 10.456-10.832-3.629-25.497-13.357-33.883-39.049-12.493-38.297-6.44-106.121 29.082-162.213-15.849-41.506-37.944-89.201-62.35-134.611-46.478-16.293-83.524-37.717-110.114-63.704-34.736-33.906-48.856-67.561-38.753-92.319 6.224-15.338 20.617-24.485 38.492-24.485 12.447 0 25.907 4.494 38.935 12.982 32.893 21.504 75.844 93.15 98.885 134.668 47.661 14.882 94.719 20.969 118.636 23.279 10.821 1.047 21.561 1.878 31.903 2.457 41.858-44.203 76.094-67.515 107.633-73.329 6.349-1.183 12.697-1.775 18.899-1.775 25.703 0 46.944 10.251 56.854 27.421 7.475 12.971 7.328 28.103-0.421 41.529-17.499 30.299-70.315 46.979-148.719 46.979-5.643-0.011-11.469-0.092-17.499-0.274zM311.344 327.225c-6.224-4.063-12.618-6.485-17.124-6.485-0.853 0-1.433 0.092-1.764 0.171-0.785 3.971 2.036 21.14 29.856 48.321 13.061 12.765 29.582 24.417 49.14 34.725-24.678-39.708-46.888-68.096-60.108-76.732zM475.719 745.87c2.901 8.886 6.497 12.903 8.738 13.653 0.057 0.011 0.103 0.035 0.147 0.046 2.161-2.435 11.356-16.35 7.236-73.171-0.717-9.91-3.129-22.438-7.19-37.319-13.289 34.225-16.942 72.249-8.932 96.79zM546.841 491.452c-21.186-2.036-53.453-6.235-89.453-14.757 13.961 27.875 26.886 56.126 37.683 82.307 3.743-4.688 7.578-9.5 11.469-14.426 13.028-16.418 27.66-34.872 42.826-52.896l-2.526-0.228zM731.035 428.214c0.592-1.024 0.581-1.433 0.432-1.707-1.672-2.901-9.239-7.51-22.403-7.51-3.675 0-7.589 0.375-11.628 1.126-16.429 3.038-35.59 14.393-58.425 34.646 61.964-2.958 87.006-17.897 92.024-26.556zM683.727 959.999h-515.185c-31.574 0-57.231-25.589-57.231-57.242v-909.515c0-31.619 25.657-57.242 57.231-57.242h686.91c31.642 0 57.231 25.622 57.231 57.242v737.791l-228.956 228.967zM683.727 879.069l148.036-148.036h-148.036v148.036zM855.462-6.757h-686.921v909.515h457.943v-171.725c0-31.619 25.6-57.242 57.231-57.242h171.736v-680.549zM417.43 227.784c-4.676 4.131-10.286 7.133-16.657 8.897-6.292 1.797-15.303 2.708-26.783 2.708h-38.104c-7.247 0-12.708-1.661-16.247-4.972-3.572-3.344-5.404-8.761-5.404-16.076v-113.004c0-6.576 1.626-11.696 4.836-15.246 3.265-3.64 7.611-5.496 12.914-5.496 5.075 0 9.353 1.854 12.697 5.518 3.276 3.596 4.95 8.783 4.95 15.417v38.65h24.36c18.807 0 33.257 4.107 42.917 12.219 9.831 8.215 14.825 20.367 14.825 36.125 0 7.339-1.206 14.051-3.607 19.968-2.413 5.996-6.007 11.128-10.694 15.292zM392.809 180.531c-2.128-2.867-5.165-4.881-9.307-6.178-4.403-1.365-10.013-2.071-16.703-2.071h-17.158v39.117h17.158c15.463 0 21.732-3.083 24.224-5.597 3.322-3.55 4.938-8.090 4.938-13.858 0-4.756-1.058-8.59-3.151-11.413zM558.184 225.395c-6.178 5.404-13.164 9.147-20.764 11.117-7.396 1.911-16.361 2.89-26.613 2.89h-38.696c-7.157 0-12.504-1.718-15.906-5.132s-5.132-8.761-5.132-15.906v-107.497c0-5.040 0.443-9.079 1.354-12.322 1.035-3.686 3.265-6.565 6.622-8.556 3.197-1.935 7.681-2.867 13.665-2.867h38.696c6.85 0 13.107 0.443 18.603 1.331 5.597 0.91 10.911 2.503 15.781 4.722 4.915 2.242 9.489 5.268 13.642 9 5.2 4.779 9.535 10.274 12.879 16.361 3.311 6.064 5.803 12.947 7.372 20.435 1.569 7.418 2.367 15.736 2.367 24.69-0.011 27.397-8.056 48.174-23.871 61.736zM532.323 122.573c-1.922-1.672-4.232-3.015-6.872-3.96-2.765-0.979-5.45-1.604-8.010-1.843-2.697-0.25-6.508-0.388-11.332-0.388h-19.661v93.821h16.76c8.772 0 16.293-0.956 22.368-2.833 5.678-1.729 10.569-5.928 14.54-12.504 4.074-6.724 6.144-17.158 6.144-31.028 0-19.558-4.676-33.428-13.938-41.267zM692.898 239.389h-69.996c-4.665 0-8.442-0.694-11.538-2.117-3.311-1.501-5.781-3.949-7.35-7.282-1.457-3.118-2.161-6.929-2.161-11.651v-112.799c0-6.793 1.661-12.015 4.904-15.519 3.311-3.596 7.635-5.428 12.846-5.428 5.108 0 9.399 1.797 12.743 5.358 3.254 3.515 4.904 8.761 4.904 15.588v45.454h46.057c5.154 0 9.193 1.24 11.981 3.71 2.901 2.56 4.369 5.996 4.369 10.229 0 4.221-1.433 7.668-4.278 10.24-2.765 2.526-6.826 3.8-12.072 3.8h-46.057v31.813h55.66c5.45 0 9.649 1.308 12.482 3.903 2.901 2.64 4.369 6.156 4.369 10.444 0 4.199-1.468 7.681-4.381 10.365-2.867 2.594-7.054 3.892-12.482 3.892z" />
<glyph unicode="&#xe91c;" glyph-name="download" d="M758.735 747.314c-38.233 124.074-151.863 212.686-286.19 212.686-164.79 0-298.431-133.358-298.891-298.040v-4.314c-98.252-20.474-171.011-106.353-171.011-209.224 0-117.91 95.585-213.495 213.495-213.495 0.076 0 0.152 0 0.226 0h128.086c23.582 0 42.699 19.117 42.699 42.699s-19.117 42.699-42.699 42.699v0h-128.097c-0.301-0.002-0.658-0.004-1.014-0.004-70.749 0-128.1 57.353-128.1 128.1 0 70.392 56.776 127.522 127.032 128.097h5.285c13.111 0.238 24.846 5.936 33.060 14.91l0.031 0.035c6.405 7.425 10.307 17.166 10.307 27.819 0 2.503-0.215 4.957-0.629 7.341l0.036-0.254c-2.937 13.278-4.621 28.53-4.621 44.177 0 117.91 95.585 213.495 213.495 213.495 109.781 0 200.209-82.859 212.155-189.451l0.088-0.969c3.167-20.728 20.867-36.424 42.235-36.424 3.228 0 6.372 0.358 9.395 1.037l-0.285-0.053c10.747 2.377 23.091 3.739 35.751 3.739 0.303 0 0.606-0.001 0.909-0.002h-0.047c94.327 0 170.796-76.468 170.796-170.796s-76.468-170.796-170.796-170.796v0h-85.398c-23.582 0-42.699-19.117-42.699-42.699s19.117-42.699 42.699-42.699v0h85.398c138.776 3.55 249.921 116.892 249.921 256.193 0 141.535-114.737 256.272-256.272 256.272-2.234 0-4.46-0.029-6.679-0.086l0.328 0.006zM515.244 491.12c-23.582 0-42.699-19.117-42.699-42.699v0-366.571l-55.188 55.188c-7.731 7.731-18.413 12.513-30.209 12.513-23.595 0-42.723-19.128-42.723-42.723 0-11.798 4.783-22.478 12.513-30.209l128.097-128.097c7.728-7.738 18.41-12.523 30.209-12.523s22.48 4.786 30.209 12.523v0l128.097 128.097c7.731 7.731 12.513 18.413 12.513 30.209 0 23.595-19.128 42.723-42.723 42.723-11.798 0-22.478-4.783-30.209-12.513l-55.188-55.188v366.571c0 23.582-19.117 42.699-42.699 42.699v0z" />
<glyph unicode="&#xe91d;" glyph-name="microsoftoutlook, outlookcom" d="M1024 644.821v-447.061c0-9.813-3.413-18.091-10.155-24.576-6.741-6.571-15.019-9.813-24.747-9.813h-364.672v296.917l68.267-52.437c4.352-3.627 9.771-5.376 16.171-5.376 6.315 0 11.819 1.749 16.597 5.419l298.539 236.928zM624.427 731.051h364.672c9.003 0 16.768-2.688 23.168-8.192 6.4-5.461 9.984-12.8 10.581-21.76l-314.411-250.709-84.011 66.091v214.571zM571.904 923.136v-950.229l-571.904 98.816v749.867l571.904 101.547zM399.147 446.123c-0.853 48.341-13.355 88.405-37.504 120.064-23.68 31.573-54.4 48.256-90.923 49.664-35.157-1.408-65.237-18.048-89.6-49.664-24.32-31.659-36.48-71.765-37.12-120.064 0.64-47.659 13.44-87.339 37.76-119.083 24.363-31.573 54.357-48.341 89.643-50.176 36.48 1.493 67.157 18.091 91.52 49.92 24.32 31.915 37.12 71.68 37.76 119.339h-1.536zM266.027 552.021c18.389-0.853 33.877-10.923 46.208-30.592 12.16-19.669 18.56-44.587 18.56-74.752 0-30.763-6.357-55.765-18.56-75.563-12.843-19.797-28.16-30.037-46.763-30.037s-33.92 9.643-46.72 29.44-18.56 44.8-18.56 74.837c0 30.080 5.76 55.083 18.56 74.24 12.117 19.2 27.563 29.44 46.123 30.763l1.152 1.664z" />
<glyph unicode="&#xe91e;" glyph-name="google" d="M522.24 521.173v-175.573h290.389c-11.733-75.307-87.723-220.757-290.389-220.757-174.72 0-317.397 144.597-317.397 323.157s142.72 323.157 317.397 323.157c99.413 0 166.016-42.197 204.16-78.891l138.837 133.888c-89.173 83.243-204.8 133.845-342.997 133.845-283.093 0-512-228.907-512-512s228.907-512 512-512c295.509 0 491.52 207.744 491.52 500.309 0 33.621-3.627 59.307-8.064 84.864h-483.456z" />
<glyph unicode="&#xe91f;" glyph-name="yahoo" d="M576.341-63.999s-35.84 6.485-64.725 6.485c-25.984 0-64.981-6.485-64.981-6.485l8.149 434.987c-60.373 104.363-237.781 422.187-348.501 589.012 55.68-12.672 79.104-11.904 135.040 0l0.853-1.451c70.485-124.843 178.304-298.88 269.44-449.707 89.984 148.181 231.637 379.563 270.037 451.157 43.52-11.435 87.424-11.008 136.064 0-51.243-68.992-237.483-391.381-350.080-589.012l8.363-434.987h0.341z" />
<glyph unicode="&#xe920;" glyph-name="apple" d="M302.415-44.255c-20.169 13.475-38.079 29.977-53.046 49.038-16.331 19.743-31.47 40.509-45.37 62.001-32.664 47.759-58.206 99.994-75.903 155.045-21.321 64.048-31.682 125.367-31.682 185.364 0 66.948 14.499 125.367 42.727 174.405 20.895 38.378 52.023 70.487 89.548 93.045 36.246 22.6 78.461 34.967 121.102 35.819 14.924 0 31.129-2.132 48.185-6.396 12.366-3.411 27.291-8.955 45.626-15.778 23.453-8.955 36.246-14.499 40.509-15.778 13.645-5.117 25.158-7.249 34.113-7.249 6.823 0 16.63 2.132 27.504 5.544 6.183 2.132 17.91 5.97 34.54 13.219 16.459 5.97 29.508 11.087 39.87 14.924 15.778 4.69 31.043 8.955 44.774 11.087 16.63 2.559 33.133 3.411 48.952 2.132 30.275-2.132 57.993-8.528 82.725-17.91 43.495-17.483 78.589-44.774 104.771-83.578-11.087-6.823-21.321-14.754-30.915-23.453-20.767-18.336-38.378-40.084-52.449-64.175-18.336-32.834-27.717-69.932-27.461-107.457 0.64-46.181 12.366-86.776 35.819-121.956 16.502-25.585 38.548-47.503 65.413-65.498 13.219-8.955 24.817-15.138 35.819-19.189-5.117-15.991-10.746-31.555-17.27-46.906-14.796-34.412-32.408-67.374-53.302-98.502-18.421-26.864-32.92-46.906-43.921-60.125-17.142-20.468-33.687-35.819-50.318-46.778-18.336-12.153-39.87-18.592-61.916-18.592-14.924-0.64-29.85 1.279-44.091 5.416-12.366 4.051-24.562 8.614-36.502 13.773-12.494 5.714-25.414 10.575-38.59 14.499-16.204 4.265-32.834 6.311-49.635 6.268-17.057 0-33.687-2.132-49.464-6.183-13.219-3.753-26.012-8.358-38.676-13.859-17.91-7.463-29.636-12.366-36.459-14.499-13.816-4.094-27.973-6.567-42.215-7.463-22.174 0-42.812 6.396-63.366 19.189zM594.681 742.911c-28.996-14.499-56.543-20.639-84.132-18.592-4.265 27.547 0 55.86 11.513 86.861 10.234 26.438 23.879 50.318 42.642 71.638 19.616 22.174 43.068 40.509 69.506 53.729 28.144 14.499 55.008 22.174 80.593 23.453 3.411-28.996 0-57.566-10.661-88.268-9.722-27.291-24.221-52.449-42.642-75.049-18.549-22.174-41.576-40.509-67.629-53.729z" />
<glyph unicode="&#xe921;" glyph-name="cooler_2" horiz-adv-x="1104" d="M909.833 151.384l-60.145 250.991c-8.297 41.495-43.562 70.53-87.124 70.53h-429.408c-43.562 0-82.97-29.034-89.205-72.595l-47.716-251.001c0-6.209-8.297-8.297-12.45-8.297-6.221 2.089-8.297 6.232-8.297 12.45l47.716 248.924c10.375 53.951 56.013 91.267 109.952 91.267h429.397c53.925 0 97.487-35.265 107.861-85.036l60.156-253.066c2.078-4.154-4.154-10.385-8.297-12.45-4.143-2.103-10.375 4.132-12.44 8.286zM1061.26 715.597h-107.876c-4.154 0-8.297-4.154-8.297-8.297-4.154-10.364-8.286-18.66-16.582-22.814v-29.045c0-8.286 2.078-10.364 8.297-10.364h29.034c2.078 0 4.154-4.154 4.154-6.221v-14.528c0-4.154-2.078-6.209-4.154-6.209-14.528 0-33.189-6.232-37.343-12.45 0-2.078-2.078-2.078-4.154-2.078h-24.902c-2.078 0-4.154 0-6.209 2.078-2.078 6.209-22.825 12.45-35.277 12.45-4.154 0-4.154 2.065-4.154 6.209v14.528c0 2.078 0 6.221 4.154 6.221h26.968c6.221 0 12.44 2.078 12.44 10.364v29.045c-10.364 4.154-14.517 12.45-18.66 22.814 0 4.154-4.154 8.297-8.297 8.297h-638.89c-4.154 0-8.297-4.154-8.297-8.297-4.154-10.364-8.297-18.66-16.582-22.814v-29.045c0-8.286 2.078-10.364 8.286-10.364h29.045c2.078 0 4.154-4.154 4.154-6.221v-14.528c0-4.154-2.078-6.209-4.154-6.209-14.528 0-33.199-6.232-37.343-12.45 0-2.078-2.078-2.078-4.154-2.078h-24.902c-2.078 0-4.154 0-6.221 2.078-2.078 6.209-22.814 12.45-35.265 12.45-4.154 0-4.154 2.065-4.154 6.209v14.528c0 2.078 0 6.221 4.154 6.221h26.968c6.209 0 12.44 2.078 12.44 10.364v29.045c-10.364 4.154-14.517 12.45-18.66 22.814 0 4.154-4.154 8.297-8.297 8.297h-103.722c-4.154 0-10.364-6.209-10.364-10.364l-16.593-221.957c6.221-120.326 29.034-234.408 37.343-350.57 4.154-26.968 24.902-47.716 51.859-47.716v-12.44c0-6.232 4.154-10.385 10.375-10.385h64.299c6.221 0 10.375 4.154 10.375 10.385v12.44h719.795v-12.44c0-6.232 4.154-10.385 10.375-10.385h64.299c6.221 0 10.375 4.154 10.375 10.385v12.44c29.034 0 49.782 20.736 51.859 49.782 10.385 114.096 33.189 228.176 37.343 348.503l-14.528 221.957c0 4.154-6.221 10.364-10.364 10.364zM1079.931 781.976c0 29.045-22.814 51.859-51.859 51.859h-950.061c-29.045 0-51.859-24.891-51.859-53.925v-20.748c0-6.209 4.154-10.364 10.375-10.364h1033.020c6.221 0 10.375 4.154 10.375 10.364v22.814z" />
<glyph unicode="&#xe922;" glyph-name="group" d="M375.165 431.744c-17.466 29.080-41.145 54.126-69.051 72.293-26.718-25.295-62.678-40.931-102.286-40.931s-75.568 15.636-102.286 40.931c-60.702-39.541-101.542-111.63-101.542-186.917v-71.795h274.403c5.694 74.846 44.861 142.924 100.761 186.419zM329.027 612.14c0 69.038-56.159 125.198-125.198 125.198s-125.198-56.159-125.198-125.198 56.171-125.198 125.198-125.198 125.198 56.159 125.198 125.198zM1024 317.132c0 75.286-40.84 147.376-101.542 186.917-26.718-25.295-62.678-40.931-102.286-40.931s-75.568 15.636-102.286 40.931c-27.904-18.167-51.585-43.212-69.051-72.293 55.9-43.494 95.068-111.585 100.761-186.408h274.403v71.784zM945.368 612.14c0 69.038-56.159 125.198-125.198 125.198s-125.198-56.159-125.198-125.198 56.159-125.198 125.198-125.198c69.027 0 125.198 56.159 125.198 125.198zM615.055 426.581c-28.209-22.811-64.044-36.536-103.055-36.536s-74.846 13.726-103.055 36.536c-65.356-40.501-111.506-116.782-111.506-200.066v-67.853h429.133v67.853c0 83.273-46.163 159.565-111.517 200.066zM511.999 413.872c77.433 0 140.428 63.007 140.428 140.439s-62.995 140.428-140.428 140.428-140.428-62.995-140.428-140.428 62.995-140.439 140.428-140.439z" />
<glyph unicode="&#xe923;" glyph-name="umbrella, april" d="M980.71 420.536c0.285 0.707 0.443 1.46 0.672 2.2 0.239 0.707 0.514 1.39 0.65 2.144 0.308 1.448 0.443 2.942 0.443 4.446 0 0.034 0.022 0.068 0.022 0.125v0 0.022c0 251.579-198.504 457.642-447.142 469.878v37.273c0 12.895-10.444 23.374-23.362 23.374-12.895 0-23.385-10.477-23.385-23.374v-37.273c-248.603-12.223-447.108-218.297-447.108-469.878v0c0-0.022 0-0.022 0-0.022 0-0.068 0.011-0.125 0.022-0.193 0.011-1.471 0.16-2.954 0.422-4.379 0.16-0.764 0.433-1.482 0.672-2.2 0.217-0.718 0.376-1.448 0.672-2.144 0.376-0.901 0.867-1.721 1.345-2.576 0.275-0.479 0.479-0.993 0.776-1.448 1.721-2.6 3.957-4.8 6.533-6.511 0.4-0.285 0.867-0.479 1.289-0.718 0.889-0.525 1.757-1.049 2.725-1.436 0.593-0.262 1.208-0.376 1.813-0.581 0.843-0.262 1.665-0.571 2.566-0.74 0.981-0.193 1.961-0.229 2.942-0.296 0.535-0.034 1.049-0.16 1.596-0.16 0.593 0 1.14 0.125 1.699 0.183 0.947 0.068 1.892 0.103 2.829 0.275 0.911 0.183 1.779 0.501 2.646 0.776 0.581 0.205 1.164 0.308 1.711 0.547 0.993 0.41 1.892 0.935 2.793 1.46 0.41 0.239 0.832 0.41 1.243 0.696 1.299 0.843 2.531 1.836 3.615 2.964 72.925 72.891 160 72.868 232.914-0.034 0.239-0.239 0.514-0.41 0.776-0.65 0.867-0.797 1.757-1.596 2.737-2.246 0.753-0.514 1.561-0.867 2.36-1.278 0.581-0.275 1.082-0.627 1.665-0.867 0.993-0.41 2.029-0.672 3.044-0.947 0.456-0.114 0.867-0.296 1.333-0.388 1.517-0.296 3.068-0.479 4.607-0.479 1.561 0 3.090 0.183 4.618 0.479 0.468 0.092 0.889 0.275 1.345 0.4 1.015 0.262 2.029 0.525 3.010 0.935 0.604 0.239 1.14 0.604 1.711 0.901 0.764 0.388 1.573 0.73 2.315 1.243 0.889 0.604 1.687 1.322 2.497 2.053 0.331 0.308 0.718 0.535 1.015 0.843 0.034 0 0.034 0 0.034 0 32.391 32.404 85.548 50.568 141.222 54.534v-444.896c0-21.949-17.866-39.814-39.838-39.814-21.949 0-39.814 17.866-39.814 39.814 0 12.93-10.467 23.385-23.385 23.385-12.906 0-23.374-10.456-23.374-23.385 0-47.751 38.835-86.574 86.574-86.574 43.132 0 78.877 31.719 85.41 73.051 0.718 2.189 1.186 4.504 1.186 6.909v451.508c55.652-3.968 108.76-22.107 141.164-54.477 1.094-1.118 2.315-2.098 3.626-2.976 0.535-0.364 1.164-0.65 1.757-0.957 0.73-0.41 1.448-0.843 2.246-1.174 0.843-0.364 1.733-0.581 2.622-0.822 0.581-0.16 1.118-0.388 1.711-0.514 1.517-0.296 3.079-0.479 4.607-0.479s3.090 0.183 4.607 0.479c0.331 0.068 0.65 0.217 0.981 0.275 1.14 0.285 2.292 0.604 3.409 1.082 0.376 0.16 0.718 0.4 1.118 0.581 0.981 0.479 1.961 0.935 2.918 1.586 0.285 0.205 0.535 0.468 0.843 0.696 0.911 0.685 1.825 1.345 2.646 2.166v0c72.925 72.904 159.977 72.925 232.914 0.022 1.094-1.118 2.315-2.109 3.626-2.954 0.422-0.308 0.911-0.501 1.379-0.764 0.867-0.501 1.711-0.993 2.612-1.379 0.65-0.262 1.311-0.4 1.938-0.615 0.822-0.239 1.607-0.558 2.451-0.718 1.14-0.229 2.269-0.275 3.409-0.331 0.376-0.034 0.753-0.125 1.14-0.125 0.4 0 0.776 0.092 1.164 0.125 1.14 0.057 2.269 0.114 3.386 0.331 0.843 0.16 1.63 0.468 2.451 0.718 0.627 0.217 1.311 0.342 1.938 0.615 0.911 0.388 1.757 0.878 2.589 1.357 0.468 0.262 0.981 0.479 1.448 0.786 2.566 1.711 4.789 3.923 6.499 6.511 0.331 0.479 0.535 1.015 0.843 1.528 0.456 0.832 0.947 1.63 1.299 2.497zM668.749 476.656c-42.289 24.16-97.633 37.934-156.751 37.934-0.011 0 0 0-0.011 0-59.13 0-114.461-13.774-156.763-37.956 9.955 242.344 95.615 375.814 156.249 376.554 0.183 0 0.331 0.011 0.514 0.011s0.331-0.011 0.501-0.011c60.612-0.707 146.284-134.198 156.26-376.532zM91.523 481.147c21.514 175.905 151.152 318.792 320.286 359.976-16.157-20.215-31.115-45.208-44.274-74.682-33.84-75.844-54.397-176.806-59.027-288.179-68.968 46.736-147.618 47.739-216.986 2.885zM715.471 478.264c-4.629 111.372-25.186 212.335-59.038 288.179-13.158 29.462-28.129 54.455-44.274 74.682 169.156-41.16 298.806-184.070 320.32-359.976-69.368 44.854-148.040 43.85-217.009-2.885z" />
<glyph unicode="&#xe924;" glyph-name="daisy, may" d="M903.116 703.746c-7.878 55.146-47.268 100.84-100.84 115.020 3.151 55.146-29.937 108.718-81.932 130.777-53.571 22.059-113.444 7.878-149.684-29.937-45.693 29.937-107.142 29.937-154.411-6.303-45.693-34.664-64.601-91.386-48.845-144.958-50.42-25.209-78.782-80.357-72.479-137.079s47.268-100.84 100.84-115.020c-6.303-122.899 144.958-190.651 233.192-100.84 45.693-29.937 108.718-28.361 154.411 6.303s64.601 92.962 48.845 144.958c48.845 26.786 77.205 80.357 70.904 137.079zM696.709 624.966c-15.756-39.39-55.146-64.601-97.688-64.601-75.63 0-127.625 77.205-97.688 148.109 23.634 53.571 85.083 78.782 140.231 56.723 51.996-22.059 77.205-85.083 55.146-140.231zM509.21 287.782c-61.449 15.756-124.474-1.575-165.44-50.42 7.878 72.479 22.059 137.079 40.967 192.226-7.878 14.181-14.181 29.937-17.331 45.693-15.756-37.815-28.361-81.932-39.39-130.777-34.664 74.054-113.444 107.142-195.377 89.81-7.878-1.575-12.605-7.878-12.605-15.756-1.575-113.444 85.083-190.651 192.226-179.621-9.453-86.66-11.029-184.348-3.151-288.339 1.575-20.483 33.087-18.908 31.512 1.575-3.151 55.146-4.727 108.718-4.727 159.137 100.84-17.331 182.773 53.571 184.348 159.137 0 9.453-4.727 15.756-11.029 17.331z" />
<glyph unicode="&#xe925;" glyph-name="at, email" d="M955.008 192c43.872 75.36 68.992 162.496 68.992 256 0 282.752-229.248 512-512 512s-512-229.248-512-512 229.248-512 512-512c141.376 0 269.376 57.248 361.984 150.016l-90.624 90.624c-69.472-69.632-165.472-112.64-271.36-112.64-211.744 0-384 172.256-384 384s172.256 384 384 384 384-172.256 384-384c0-45.504-8.736-88.992-23.36-129.504l-1.024 1.504h-103.616v382.624h-256c-141.376 0-256-114.624-256-256s114.624-256 256-256c58.752 0 112.256 20.64 155.488 53.888 23.264-31.008 58.752-52.512 100.512-52.512h187.008zM640 511.744v-65.12c0-70.624-57.504-128-128-128s-128 57.376-128 128 57.504 128 128 128h128v-62.88z" />
<glyph unicode="&#xe926;" glyph-name="eat_together" horiz-adv-x="2128" d="M1414.72 267.342c11.367-20.417 12.629-40.161 3.548-55.574-8.56-14.583-25.107-22.882-46.662-23.765 9.462-20.762 14.155-41.301 14.263-62.316 0.294-32.153-12.414-64.11-35.767-90.051h20.714v-69.222h54.371v191.147h9.076v54.371h-9.076v99.563h-35.029l24.561-44.183zM1289.986 163.038c-7.037 12.099-14.744 20.181-14.81 20.279-1.394 1.399-2.652 2.946-3.843 4.514h-6.987c-1.196-1.573-2.456-3.125-3.857-4.529l-0.591-0.612c-0.481-0.54-1.552-1.736-2.836-3.316-2.525-3.056-6.26-7.893-10.002-14.017-1.576-2.539-3.008-5.131-4.332-7.761h50.266c-0.954 1.815-1.932 3.663-3.008 5.473zM1163.733 65.277v2.179c-9.258 18.409-14.086 38.277-13.902 58.262 0.108 20.996 4.804 41.531 14.263 62.255-21.551 0.852-38.061 9.151-46.657 23.729-9.081 15.413-7.818 35.161 3.548 55.579l24.566 44.185h-36.187v-99.563h-9.079v-54.371h9.079v-191.147h54.371v69.222h21.9c-8.304 9.208-15.241 19.193-20.764 29.671h-1.138zM1276.196 65.277h-16.724c0.072-1.502 0.11-3.008 0.010-4.521-0.483-9.387-4.038-18.122-10.064-25.118h36.832c-6.028 6.997-9.579 15.726-10.064 25.116-0.069 1.514-0.062 3.020 0.010 4.524zM1136.647 529.538c15.224 1.7 53.455 2.536 75.134 2.542 0.844 0 1.394-0.287 1.734-0.782h47.489c8.010 1.983 15.521 1.987 21.738 0h39.479c0.306 0.495 0.889 0.782 1.734 0.782 21.681-0.007 59.909-0.842 75.134-2.542 7.286-0.842 16.688-2.179 26.13-4.77v112.348l-61.045 0.002c0.007-0.662 0.112-1.318 0.112-1.983 0-53.159-43.228-96.39-96.387-96.39-53.161 0-96.39 43.231-96.39 96.39 0 0.665 0.074 1.32 0.11 1.983l-62.197-0.002v-112.683c9.82 2.824 19.736 4.216 27.32 5.105zM1159.709 125.641c-0.244-27.218 9.985-57.982 33.963-84.224 6.332-7.040 15.102-10.602 23.885-10.602 7.659 0 15.358 2.721 21.501 8.295 13.179 11.872 14.215 32.203 2.346 45.383-14.014 15.886-17.166 28.346-17.412 41.182-0.167 15.301 6.729 32.141 14.638 44.862 3.904 6.332 7.888 11.609 10.774 15.097 0.713 0.849 1.329 1.578 1.875 2.229h-76.343c-8.235-16.913-15.112-37.873-15.227-62.19zM1360.766 187.828h-76.345c3.080-3.558 8.802-10.659 14.096-19.743 7.346-12.448 13.309-28.064 13.194-42.449-0.246-12.826-3.436-25.291-17.409-41.18-11.874-13.182-10.836-33.485 2.351-45.388 6.14-5.538 13.842-8.256 21.501-8.256 8.785 0 17.524 3.565 23.885 10.604 23.971 26.243 34.197 56.998 33.956 84.217-0.117 24.322-6.994 45.285-15.227 62.195zM1354.381 635.165c0-47.79-38.721-86.512-86.512-86.512s-86.512 38.721-86.512 86.512c0 47.79 38.721 86.512 86.512 86.512s86.512-38.721 86.512-86.512zM1089.992 502.559c-1.873-1.633-3.61-3.496-4.983-5.767v0.005c-2.585-4.204-4.45-9.935-4.397-15.705 0.244-12.166 6.272-19.76 11.26-24.853 7.936-7.711 17.206-13.065 30.346-19.457 3.001-1.437 6.207-2.888 9.624-4.385h43.532c-9.875 4.266-16.308 9.997-16.308 17.766 0 9.571 9.395 12.835 25.532 14.695-18.182 6.456-31.974 12.152-41.548 16.743 12.818-1.014 30.594-2.721 49.484-9.093l18.189 12.876c0.010 0.108 0.053 0.187 0.060 0.292 2.649 11.85 12.226 24.559 25.642 34.025 0.846 0.603 1.696 1.141 2.575 1.691h-22.158c-1.021 0.175-2.035 0.375-3.074 0.426h-0.005c-0.23 0.005-9.285 0.357-22.278 0.357-15.062-0.005-35.223-0.421-53.697-2.479-9.28-1.081-18.108-2.475-26.484-4.949-4.213-1.268-8.366-2.776-12.766-5.239-2.819-1.631-5.952-3.685-8.962-6.851 0.129-0.057 0.253-0.072 0.416-0.127zM1344.221 522.231c-12.993 0-22.079-0.349-22.278-0.357h-0.005c-1.071-0.050-2.054-0.251-3.074-0.426h-23.246c3.247-5.299 4.225-11.733 2.652-18.782-2.649-11.846-12.226-24.554-25.644-34.059-0.179-0.122-0.363-0.237-0.543-0.359 22.335-0.065 43.171-0.667 59.718-1.741 3.015 2.408 6.439 4.342 10.186 5.66 19.313 6.688 37.566 8.438 50.637 9.462-9.577-4.622-23.368-10.286-41.548-16.743 16.135-1.861 25.532-5.122 25.532-14.695 0-7.766-6.432-13.498-16.308-17.766h43.532c3.417 1.497 6.623 2.948 9.624 4.385 13.17 6.394 22.407 11.745 30.346 19.457 4.99 5.062 11.018 12.69 11.26 24.853 0.055 5.77-1.81 11.501-4.397 15.705v-0.005c-1.339 2.241-3.080 4.103-4.983 5.767 0.132 0.055 0.289 0.069 0.418 0.122-3.008 3.135-6.14 5.189-8.962 6.851-4.399 2.46-8.55 3.971-12.766 5.239-8.376 2.475-17.203 3.9-26.484 4.949-18.473 2.061-38.635 2.477-53.697 2.482zM732.827 45.759c-30.449 58.441-44.718 104.635-44.924 145.496-0.060 24.126 5.593 46.462 16.317 64.601 11.138 19.088 26.121 30.944 37.633 37.87v17.77h-54.371v-99.563h-9.079v-54.371h9.079v-191.147h54.371v67.242c-3.543 3.503-6.623 7.529-9.026 12.102zM948.939 296.303c14.136-7.766 30.343-20.351 42.131-40.501 5.416-9.161 9.517-19.433 12.271-30.41v86.136h-54.371v-15.227zM1004.144 157.562h8.242v54.371h-6.504c0.956-6.729 1.494-13.61 1.457-20.7-0.060-10.822-1.138-22.022-3.194-33.702zM908.477 191.2c-0.062 9.945-2.001 13.378-2.764 14.689-0.782 1.27-1.564 2.162-4.041 3.61-1.559 0.964-3.84 1.798-6.322 2.465h-95.589c-0.593-0.172-1.15-0.349-1.696-0.536-6.128-2.179-7.596-4.029-8.605-5.712-0.655-1.141-2.599-4.581-2.652-14.457-0.062-5.473 0.737-16.381 5.779-33.698h110.106c5.004 17.278 5.842 28.176 5.784 33.638zM869.348 65.277h-43.463c-0.777-10.944-5.167-21.422-12.58-29.671h68.617c-4.699 5.232-8.309 11.425-10.473 18.313-1.157 3.732-1.818 7.529-2.102 11.327zM962.429 45.804c-3.366-6.427-8.007-11.846-13.488-16.087v-63.271h54.371v186.738c-6.152-31.357-19.516-66.341-40.883-107.348zM714.769 529.538c15.224 1.7 53.455 2.536 75.134 2.542 0.844 0 1.394-0.287 1.734-0.782h30.587c8.010 1.983 15.521 1.987 21.738 0h56.353c0.306 0.495 0.889 0.782 1.734 0.782 21.681-0.007 59.909-0.842 75.134-2.542 7.286-0.842 16.688-2.179 26.13-4.77v112.348l-61.045 0.002c0.007-0.662 0.112-1.318 0.112-1.983 0-53.159-43.228-96.39-96.387-96.39-53.161 0-96.39 43.231-96.39 96.39 0 0.665 0.074 1.32 0.112 1.983l-62.197-0.002v-112.683c9.815 2.824 19.7 4.216 27.285 5.105zM1693.852-19.011c0.189-0.014 0.373-0.069 0.593-0.112 2.037-0.246 4.036-0.363 6.028-0.363 24.629-0.002 45.947 18.412 49.011 43.468l22.813 187.591c-27.992 4.332-54.847 8.967-78.442 13.799l-0.002-244.413zM2038.321 179.634l-12.531 1.157c-8.185 0.775-133.033 12.589-244.059 29.37v-52.601h11.549v-191.147h54.371v69.222h202.282c3.125-23.117 6.564-46.187 10.545-69.222h55.253c-39.006 218.599-37.808 442.583 3.806 660.821-17.813 3.417-35.63 6.798-53.412 10.184-26.793-140.453-37.268-283.195-31.61-425.486h-1.203c2.054-12.35 3.135-19.571 3.187-19.867l1.853-12.46zM1847.621 65.277v92.284h189.882c2.112-30.817 5-61.58 8.656-92.284h-198.538zM1727.947 390.878v-9.878h-13.546c-5.717-13.55-12.51-27.497-20.575-41.767l-0.002-103.724c120.399-24.925 332.846-44.855 332.846-44.855s-76.632 519.105-215.034 489.897c-63.515-13.416-66.040-52.3-66.451-111.545 7.524 4.278 13.173 9.261 17.883 14.16 11.807 12.653 15.602 27.392 15.65 27.526 4.204 20.638 22.507 35.587 43.535 35.587 2.826 0 5.662-0.289 8.441-0.797 24.083-4.634 39.912-28 35.281-52.078l-0.012-0.117-0.117-0.533c-2.759-12.694-10.604-37.916-32.313-64.127-11.616-14.33-41.070-43.642-93.554-55.514-2.527-17.29-6.332-35.52-12.090-54.591v-27.646zM1754.613 924.885c58.822-17.645 92.218-79.647 74.542-138.468s-79.648-92.216-138.47-74.539c-58.822 17.645-92.218 79.647-74.542 138.468s79.648 92.216 138.47 74.539zM280.349-33.585h54.371v191.147h11.549v54.371h-252.791c5.662 142.259-4.818 285-31.608 425.486-17.813-3.417-35.625-6.798-53.408-10.184 41.648-218.237 42.812-442.222 3.806-660.821h55.253c3.976 23.004 7.414 46.106 10.54 69.222h202.287v-69.222zM81.806 65.277c3.661 30.704 6.514 61.468 8.66 92.284h189.882v-92.284h-198.542zM403.634 911.609c59.829-13.918 97.030-73.698 83.082-133.526s-73.699-96.997-133.527-83.079c-59.829 13.918-97.030 73.698-83.082 133.526s73.699 96.997 133.527 83.079zM463.596-1.872c7.818-3.555 16.436-5.598 25.516-5.598 1.153 0 2.339 0.014 3.498 0.11 34.073 1.879 60.151 31.065 58.266 65.139l-13.782 247.189c-0.122 2.226-0.371 4.402-0.725 6.559h-72.773v-313.399zM316.55 361.255c0.17 37.992 5.227 77.053 11.561 113.721-26.668 11.367-49.78 27.82-66.884 47.86-29.026 34.185-34.568 67.72-35.632 80.554-1.796 27.383 18.904 50.935 46.11 52.721 1.088 0.067 2.169 0.117 3.247 0.117 25.405 0 47.016-19.856 49.194-45.197 0.014 0 0.172-0.785 0.43-1.867 0.54-2.219 1.81-6.549 4.576-11.668 3.558-6.315 8.909-13.895 19.098-21.245 8.672 46.588-10.109 97.769-49.178 107.516-42.203 10.528-103.375-12.4-128.283-84.774-33.647-99.742-40.876-164.648-28.103-274.5 13.601-69.961 57.417-84.75 98.561-86.883 3.381-0.536 6.858-0.849 10.406-0.794v0.005l118.18 1.552 0.002 123.596-53.35-0.713zM775.077 311.496l1.031-13.784c-8.362-2.356-17.34-5.825-26.596-10.942-13.371-7.522-27.1-19.382-36.792-35.993-9.801-16.558-14.995-37.071-14.932-59.529 0.194-38.241 13.483-82.727 43.815-140.934 7.090-13.488 20.831-21.202 35.090-21.202 6.191 0 12.46 1.451 18.308 4.521 19.332 10.127 26.802 34.025 16.681 53.388-27.1 51.469-34.98 85.833-34.788 104.257 0.062 11.018 2.224 16.257 4.038 19.459 2.697 4.517 6.669 7.405 13.839 9.99 6.872 2.415 15.578 3.080 19.511 3.020 0.954 0 1.624-0.050 1.934-0.055 0.010 0 0.050 0 0.060 0 12.104-0.968 23.406 3.615 31.35 11.666 7.94-8.019 19.215-12.637 31.355-11.666 0.253 0.010 0.916 0.055 1.987 0.055 5.351 0.227 18.787-1.451 25.705-5.772 3.61-2.112 5.727-4.089 7.647-7.238 1.815-3.202 3.974-8.474 4.038-19.459 0.187-18.424-7.692-52.788-34.75-104.257-10.127-19.332-2.658-43.236 16.681-53.388 5.851-3.070 12.152-4.521 18.311-4.521 14.255 0 27.997 7.711 35.084 21.202 30.331 58.204 43.587 102.693 43.776 140.934 0.060 22.457-5.165 42.97-14.93 59.529-14.739 25.159-37.736 38.533-56.535 44.8-2.336 0.782-4.588 1.459-6.817 2.102l1.031 13.787h-145.13zM932.502 635.165c0-47.79-38.721-86.512-86.512-86.512s-86.512 38.721-86.512 86.512c0 47.79 38.721 86.512 86.512 86.512s86.512-38.721 86.512-86.512zM668.116 502.559c-1.873-1.633-3.61-3.496-4.983-5.767v0.005c-2.585-4.204-4.45-9.935-4.397-15.705 0.244-12.166 6.27-19.76 11.26-24.853 7.936-7.711 17.203-13.065 30.346-19.457 3.001-1.437 6.207-2.888 9.624-4.385h43.53c-9.875 4.266-16.308 9.997-16.308 17.766 0 12.164 15.121 14.155 40.042 16.006h13.197l0.237 0.172c0.244-0.069 0.538-0.108 0.787-0.172h13.194c7.355 1.442 15.592 4.94 23.42 10.478 17.825 12.629 26.742 30.654 19.928 40.333-6.851 9.644-26.843 7.274-44.668-5.353-13.428-9.509-21.795-22.086-22.203-31.847l-20.217-14.277c-17.328 6.207-30.52 11.671-39.791 16.128 10.060-0.785 23.186-2.035 37.518-5.6l13.249 9.383c0.010 0.108 0.053 0.187 0.060 0.292 2.649 11.85 12.226 24.559 25.642 34.025 0.846 0.603 1.696 1.141 2.575 1.691h-5.284c-1.021 0.175-2.035 0.375-3.074 0.426h-0.005c-0.23 0.005-9.285 0.357-22.278 0.357-15.062-0.005-35.223-0.421-53.697-2.479-9.28-1.081-18.108-2.475-26.484-4.949-4.216-1.268-8.366-2.776-12.766-5.239-2.819-1.631-5.952-3.685-8.962-6.851 0.127-0.055 0.251-0.069 0.416-0.124zM922.342 522.231c-12.993 0-22.079-0.349-22.278-0.357h-0.005c-1.071-0.050-2.054-0.251-3.074-0.426h-40.152c3.247-5.299 4.225-11.733 2.652-18.782-2.649-11.846-12.226-24.554-25.642-34.059-1.21-0.852-2.463-1.629-3.682-2.408h79.354c3.123 2.575 6.676 4.624 10.595 5.968 19.313 6.688 37.566 8.438 50.637 9.462-9.577-4.622-23.368-10.286-41.548-16.743 16.133-1.861 25.53-5.122 25.53-14.695 0-7.766-6.432-13.498-16.308-17.766h43.535c3.417 1.497 6.623 2.948 9.624 4.385 13.17 6.394 22.407 11.745 30.346 19.457 4.99 5.062 11.018 12.69 11.26 24.853 0.055 5.77-1.81 11.501-4.397 15.705v-0.005c-1.339 2.241-3.080 4.103-4.983 5.767 0.132 0.055 0.289 0.069 0.418 0.122-3.008 3.135-6.14 5.189-8.962 6.851-4.399 2.46-8.55 3.971-12.766 5.239-8.376 2.475-17.206 3.9-26.484 4.949-18.476 2.061-38.638 2.477-53.699 2.482zM1156.866 311.496l-27.225-48.993c-19.813-35.642-2.656-64.823 38.114-64.823h200.226c40.802 0 57.927 29.15 38.114 64.823l-27.225 48.993h-221.973zM463.13 576.121c-3.374 3.060-8.596 2.781-11.628-0.593-3.063-3.376-2.781-8.601 0.591-11.631l11.812-10.705c7.336 0.361 14.88 0.907 22.701 1.686l-23.475 21.243zM536.637 469.988c0.615-0.67 1.332-1.323 1.995-1.983-1.447 0.014-2.893 0.057-4.347 0.069-6.812-5.344-15.102-8.974-24.274-10.107-22.581-2.773-44.24-4.168-64.345-4.168-16.123-0.002-31.488 0.909-46.117 2.709 9.457-9.21 54.833-16.197 109.388-16.197 61.451 0 111.243 8.851 111.243 19.76 0 2.601-12.766 4.588-32.16 5.961-0.232 3.661-1.38 7.699-3.319 11.855-3.072 6.566-8.139 13.436-14.923 19.564-5.284 4.763-10.894 8.421-16.369 10.961 0.424-15.045-6.028-28.966-16.74-38.456zM445.667 463.68c19.378 0 40.335 1.32 63.139 4.098 21.675 2.654 37.093 22.39 34.446 44.066-2.654 21.675-22.39 37.093-44.066 34.442-19.98-2.454-37.748-3.503-53.52-3.503-36.892 0-62.785 5.791-80.899 13.234-27.024 11.308-37.913 25.458-44.298 36.784-3.070 5.667-4.691 10.708-5.475 13.907-0.416 1.614-0.598 2.757-0.662 3.24-0.005 0.057-0.007 0.108-0.010 0.124 0 0.053-0.002 0.072-0.005 0.112h-0.002c-1.858 21.372-20.463 37.445-41.958 36.053-21.797-1.399-38.334-20.231-36.901-42.028 0.412-4.89 3.19-39.496 33.294-74.944 14.983-17.529 36.777-34.499 66.045-46.424 29.267-11.984 65.731-19.136 110.842-19.131zM1656.737 563.119c-2.879 3.546-8.060 4.093-11.607 1.251l-2.597-2.107c5.414-1.131 10.712-2.095 15.846-2.838-0.239 1.323-0.77 2.597-1.674 3.725zM1581.276 490.216c-4.019 3.357-7.46 7.355-10.119 12.037-0.43 0.775-0.791 1.561-1.198 2.346-9.5 1.739-23.284-2.876-35.63-12.835-9.512-7.697-16.128-16.905-18.789-25.114-3.618-0.189-7.102-0.418-10.356-0.658-18.725-1.372-30.953-3.316-30.953-5.889 0-5.59 13.015-10.607 33.947-14.21 12.4-2.119 27.562-3.744 44.434-4.689 10.401-0.555 21.424-0.892 32.863-0.892 61.453 0 111.243 8.851 111.243 19.76 0 5.531-56.949 8.252-113.228 8.187-4.108-0.002-8.242-0.012-12.335-0.060 6.205 7.52 9.811 15.401 10.121 21.986zM1825.965 534.934c24.191 29.255 29.607 56.953 30.348 60.368 3.608 18.772-8.677 36.899-27.447 40.515-18.655 3.598-36.668-8.5-40.448-27.079l-0.005 0.002c0 0 0 0-0.010-0.11-0.412-1.925-5-18.182-18.175-32.318-13.674-14.265-34.542-28.947-79.884-29.367-19.217 0-42.863 2.998-71.522 10.779-18.433 5.007-37.454-5.854-42.487-24.32-5.007-18.428 5.887-37.449 24.32-42.454 33.592-9.141 63.278-13.191 89.69-13.191 0.61-0.002 1.253-0.005 1.861-0.005 65.445 0 110.153 28.043 133.761 57.18zM944.85 450.192c0 10.908-197.756 10.908-197.756 0 0-7.821 22.754-14.562 55.682-17.763h86.397c32.925 3.199 55.677 9.94 55.677 17.763zM1200.874 466.317c13.835 0.964 30.999 1.612 49.723 1.82 5.359 1.913 10.942 4.742 16.312 8.541 17.825 12.629 26.742 30.654 19.928 40.333-6.851 9.644-26.843 7.274-44.668-5.353-13.428-9.509-21.795-22.086-22.203-31.847l-19.090-13.493zM1366.73 450.192c0 10.908-197.756 10.908-197.756 0 0-7.821 22.754-14.562 55.682-17.763h86.397c32.928 3.199 55.677 9.94 55.677 17.763zM1683.976 390.881h34.123v31.668h-1372.378v-31.668h34.128l-0.005-424.465h73.88v354.987h1156.36v-354.987h73.876z" />
<glyph unicode="&#xe927;" glyph-name="cook" horiz-adv-x="1472" d="M880.377 655.874c0 0 1.601 4.21 3.916 11.543 2.252 7.294 5.144 17.672 6.884 29.456 0.702 5.938 1.088 12.13 0.973 18.415-0.524 6.255-1.459 12.463-3.405 18.438-2.061 5.938-4.58 11.772-8.483 17.251-2.022 2.661-3.507 5.668-6.22 8.139l-8.558 9.739c-5.823 6.935-11.376 12.949-16.877 20.919-4.966 9.522-11.272 18.403-13.575 28.124-2.673 9.635-4.861 18.834-4.21 28.178-0.829 9.164 2.061 17.454 3.967 24.849 2.034 7.384 6.233 13.23 8.817 18.489 3.532 4.89 6.911 8.79 9.544 11.963 6.179 5.733 9.764 8.612 9.764 8.612l4.285-3.278c0 0-1.434-4.429-3.991-11.451-1.037-3.657-1.867-8.139-3.329-12.862-0.449-5.028-1.572-10.391-1.55-16.111 0.191-5.771 0.283-11.68 2.137-17.735 0.565-6.141 4.095-12.015 6.744-18.132 2.43-6.233 7.488-10.916 10.569-16.789 4.683-6.054 11.71-12.695 17.286-19.284l9.021-10.119c3.622-3.762 6.411-8.537 9.239-13.053 5.593-9.174 9.123-19.617 10.876-29.801 1.636-10.276 1.192-20.206-0.565-29.123-1.867-8.83-4.465-16.762-8.012-23.431-6.601-13.449-14.781-22.51-20.833-28.24-6.026-5.709-10.235-8.213-10.235-8.213l-4.21 3.507zM987.89 655.874c0 0 1.572 4.21 3.916 11.543 2.263 7.294 5.156 17.672 6.871 29.456 0.743 5.938 1.088 12.13 0.996 18.415-0.524 6.255-1.485 12.463-3.405 18.438-2.034 5.938-4.607 11.772-8.483 17.251-2.034 2.661-3.507 5.668-6.22 8.139l-8.558 9.739c-5.823 6.935-11.376 12.949-16.877 20.919-5.005 9.522-11.312 18.403-13.616 28.124-2.649 9.635-4.85 18.834-4.21 28.178-0.818 9.164 2.085 17.454 3.98 24.849 2.034 7.384 6.233 13.23 8.83 18.489 3.52 4.89 6.871 8.79 9.544 11.963 6.179 5.733 9.739 8.612 9.739 8.612l4.315-3.278c0 0-1.445-4.429-3.98-11.451-1.049-3.657-1.867-8.139-3.34-12.862-0.449-5.028-1.561-10.391-1.55-16.111 0.218-5.771 0.283-11.68 2.149-17.735 0.535-6.141 4.083-12.015 6.717-18.132 2.43-6.233 7.511-10.916 10.582-16.789 4.683-6.054 11.71-12.695 17.262-19.284l9.021-10.119c3.634-3.762 6.422-8.537 9.239-13.053 5.604-9.174 9.135-19.617 10.902-29.801 1.636-10.276 1.163-20.206-0.565-29.123-1.867-8.83-4.465-16.762-8.023-23.431-6.589-13.449-14.74-22.51-20.794-28.24-6.054-5.709-10.265-8.213-10.265-8.213l-4.21 3.507zM1095.415 655.874c0 0 1.601 4.21 3.916 11.543 2.252 7.294 5.144 17.672 6.871 29.456 0.732 5.938 1.088 12.13 0.985 18.415-0.524 6.255-1.459 12.463-3.416 18.438-2.034 5.938-4.567 11.772-8.483 17.251-2.010 2.661-3.479 5.668-6.193 8.139l-8.588 9.739c-5.795 6.935-11.363 12.949-16.864 20.919-4.977 9.522-11.3 18.403-13.589 28.124-2.661 9.635-4.85 18.834-4.21 28.178-0.818 9.164 2.073 17.454 3.98 24.849 2.034 7.384 6.233 13.23 8.817 18.489 3.532 4.89 6.884 8.79 9.544 11.963 6.179 5.733 9.751 8.612 9.751 8.612l4.315-3.278c0 0-1.434-4.429-3.991-11.451-1.037-3.657-1.867-8.139-3.329-12.862-0.449-5.028-1.601-10.391-1.55-16.111 0.191-5.771 0.283-11.68 2.126-17.735 0.576-6.141 4.107-12.015 6.756-18.132 2.43-6.233 7.488-10.916 10.569-16.789 4.683-6.054 11.71-12.695 17.273-19.284l9.021-10.119c3.634-3.762 6.422-8.537 9.239-13.053 5.604-9.174 9.135-19.617 10.902-29.801 1.636-10.276 1.163-20.206-0.565-29.123-1.867-8.83-4.465-16.762-8.012-23.431-6.601-13.449-14.781-22.51-20.833-28.24-6.026-5.709-10.235-8.213-10.235-8.213l-4.21 3.507zM555.882 584.537h-528.106v-92.619h410.755v-142.512h84.185v-230.648c0-73.001 66.653-132.747 148.167-132.747h625.201c81.473 0 148.14 59.731 148.14 132.747v465.763h-888.341zM1374.88 130.036c0 0 0.076-44.865-25.452-68.818-17.251-16.15-66.129-19.182-66.129-19.182 51.684 18.645 51.684 88.922 51.684 88.922v396.908h39.911v-397.829z" />
<glyph unicode="&#xe928;" glyph-name="order_online" horiz-adv-x="1632" d="M1611.234 21.418l-116.825 23.012c0 1.768 0 1.768 0 3.537v814.236c-1.768 31.855-28.317 56.633-58.402 56.633h-1239.051c-31.855 0-58.402-26.548-58.402-58.402v-812.468c0-1.768 0-1.768 0-3.537l-116.825-23.012c-1.768 0-1.768-1.768-1.768-1.768 0-24.78 19.474-42.486 44.254-42.486h1508.090c23.012 1.768 40.717 19.474 38.948 44.254 1.768 0 0 0 0 0zM816.47 906.437c5.306 0 8.843-3.537 8.843-8.843-1.768-5.306-5.306-8.843-8.843-8.843-5.306 0-8.843 3.537-8.843 8.843s3.537 8.843 8.843 8.843zM179.25 879.889h1274.441v-796.531h-1274.441v796.531zM901.443 21.418c0-5.306-3.537-8.843-8.843-8.843h-152.215c-5.306 0-8.843 3.537-8.843 8.843h-708.023l115.057 21.242c1.768-1.768 3.537-3.537 7.074-3.537h1341.707c3.537 0 5.306 1.768 7.074 3.537l113.288-21.242h-706.254zM892.6 30.26h-152.215c-5.306 0-7.074-3.537-7.074-8.843h168.153c0 7.074-3.537 8.843-8.843 8.843zM600.527 545.352h-24.78v127.435h-24.78v-127.435h-24.78v127.435h-28.317v-130.994c1.768-17.706 8.843-31.855 21.242-42.486v-207.101h84.972v205.332c12.4 10.61 19.474 26.548 21.242 42.486v0 130.994h-24.78v-125.667zM1007.657 460.403h42.486v-169.921h84.972v382.328c-127.435 0-127.435-212.407-127.435-212.407zM993.487 481.624c0-97.758-79.259-177.016-177.016-177.016s-177.016 79.259-177.016 177.016c0 97.758 79.259 177.016 177.016 177.016s177.016-79.259 177.016-177.016z" />
<glyph unicode="&#xe929;" glyph-name="star" d="M1023.144 565.060c-2.286 8.004-10.292 14.866-18.295 16.009l-325.89 46.882-146.365 296.16c-3.431 8.004-11.435 12.578-20.583 12.578s-17.152-4.574-20.583-12.578l-146.365-296.16-325.89-46.882c-9.148-1.143-16.009-6.861-18.295-16.009-2.286-8.004 0-17.152 5.717-24.013l235.556-229.838-56.031-324.747c-1.143-9.148 2.286-17.152 9.148-22.87 6.861-4.574 16.009-5.717 24.013-2.286l292.729 154.369 291.586-153.226c3.431-2.286 6.861-2.286 10.292-2.286 4.574 0 9.148 1.143 13.721 4.574 6.861 4.574 10.292 13.721 9.148 22.87l-56.031 324.747 235.556 229.838c6.861 5.717 9.148 14.866 6.861 22.87z" />
<glyph unicode="&#xe92a;" glyph-name="event" d="M789.334 365.001c-61.44-14.013-171.386-28.025-210.189-16.168-16.168 7.545-56.050 51.74-77.608 75.453-20.48 22.635-39.882 43.116-58.207 60.362-31.26 31.26-56.050 52.817-101.323 64.674-54.973 14.013-192.944 30.181-231.748-61.44-40.961-95.934-34.493-346.004-32.336-523.857 0-15.091 9.701-28.025 25.869-28.025 37.727 0 277.018 0 294.267 0s24.792 9.701 25.869 23.713c1.078 9.701 10.779 178.931 17.246 299.656 28.025-26.947 56.050-49.583 87.309-59.284 29.102-9.701 63.596-12.934 99.165-12.934 84.076 0 172.464 18.323 195.099 23.713 42.039 9.701 68.986 51.74 59.284 93.776-7.545 43.116-49.583 70.063-92.698 60.362zM459.497 781.069c0-98.821-80.11-178.931-178.931-178.931s-178.931 80.11-178.931 178.931c0 98.821 80.11 178.931 178.931 178.931s178.931-80.11 178.931-178.931zM917.604 784.302h-44.194v38.804c0 9.701-7.545 17.246-17.246 17.246h-21.558c-9.701 0-17.246-7.545-17.246-17.246v-38.804h-103.478v38.804c0 9.701-7.545 17.246-17.246 17.246h-21.558c-9.701 0-17.246-7.545-17.246-17.246v-38.804h-44.194c-17.246 0-30.181-14.013-30.181-30.181v-37.727h364.33v37.727c0 17.246-14.013 30.181-30.181 30.181zM583.455 496.504c0-17.246 14.013-30.181 30.181-30.181h302.889c17.246 0 30.181 14.013 30.181 30.181v192.944h-363.251v-192.944zM842.151 640.943c0 4.312 3.234 7.545 7.545 7.545h45.271c4.312 0 7.545-3.234 7.545-7.545v-34.493c0-4.312-3.234-7.545-7.545-7.545h-45.271c-4.312 0-7.545 3.234-7.545 7.545v34.493zM842.151 549.322c0 4.312 3.234 7.545 7.545 7.545h45.271c4.312 0 7.545-3.234 7.545-7.545v-34.493c0-4.312-3.234-7.545-7.545-7.545h-45.271c-4.312 0-7.545 3.234-7.545 7.545v34.493zM735.438 640.943c0 4.312 3.234 7.545 7.545 7.545h45.271c4.312 0 7.545-3.234 7.545-7.545v-34.493c0-4.312-3.234-7.545-7.545-7.545h-45.271c-4.312 0-7.545 3.234-7.545 7.545v34.493zM735.438 549.322c0 4.312 3.234 7.545 7.545 7.545h45.271c4.312 0 7.545-3.234 7.545-7.545v-34.493c0-4.312-3.234-7.545-7.545-7.545h-45.271c-4.312 0-7.545 3.234-7.545 7.545v34.493zM629.805 640.943c0 4.312 3.234 7.545 7.545 7.545h45.271c4.312 0 7.545-3.234 7.545-7.545v-34.493c0-4.312-3.234-7.545-7.545-7.545h-45.271c-4.312 0-7.545 3.234-7.545 7.545v34.493zM629.805 549.322c0 4.312 3.234 7.545 7.545 7.545h45.271c4.312 0 7.545-3.234 7.545-7.545v-34.493c0-4.312-3.234-7.545-7.545-7.545h-45.271c-4.312 0-7.545 3.234-7.545 7.545v34.493z" />
<glyph unicode="&#xe92b;" glyph-name="referral" d="M1018.544 321.396l-69.557 77.125-77.104-69.557c-8.692-7.844-9.392-21.242-1.548-29.934 7.844-8.713 21.242-9.392 29.955-1.548l24.846 22.408c-28.344-196.522-207.97-337.437-407.036-316.28-11.639 1.272-22.069-7.187-23.32-18.825-1.23-11.66 7.208-22.090 18.847-23.32 14.797-1.59 29.51-2.353 44.096-2.353 204.027 0 380.558 150.921 409.538 355.839l19.801-21.942c4.176-4.643 9.964-7.017 15.751-7.017 5.067 0 10.134 1.802 14.183 5.47 8.692 7.844 9.392 21.242 1.548 29.934zM538.475 446.941v-21.2h445.196v21.2c0 102.798-70.044 189.547-164.913 215.008 42.421 21.221 71.634 65.126 71.634 115.708 0 71.316-58.024 129.319-129.319 129.319-71.316 0-129.319-58.003-129.319-129.319 0-50.583 29.192-94.466 71.613-115.708-94.869-25.482-164.892-112.211-164.892-215.008zM583.185 857.051l-67.861 78.609c-7.653 8.862-21.030 9.858-29.892 2.205s-9.858-21.051-2.205-29.913l18.232-21.115c-223.658 16.536-421.176-149.331-442.525-373.625-1.102-11.66 7.441-22.005 19.101-23.129 0.678-0.064 1.357-0.085 2.035-0.085 10.812 0 20.034 8.226 21.094 19.186 19.292 203.009 199.384 352.701 402.181 334.957l-26.479-22.853c-8.862-7.653-9.837-21.030-2.184-29.892 4.198-4.855 10.112-7.356 16.048-7.356 4.918 0 9.858 1.696 13.843 5.152l78.609 67.861zM280.282 189.194c42.421 21.221 71.634 65.126 71.634 115.708 0 71.316-58.024 129.319-129.319 129.319-71.316 0-129.319-58.003-129.319-129.319 0-50.583 29.192-94.466 71.613-115.708-94.869-25.482-164.892-112.211-164.892-215.008v-21.2h445.196v21.2c0 102.798-70.044 189.547-164.913 215.008z" />
<glyph unicode="&#xe92c;" glyph-name="twitter_plain" d="M1022.037 765.056c-37.76-16.597-78.080-27.904-120.533-33.067 43.264 26.069 76.544 67.157 92.288 116.181-40.576-23.68-85.547-40.917-133.419-50.517-38.229 40.917-92.715 66.517-153.216 66.517-115.925 0-209.92-93.995-209.92-209.792 0-16.64 1.92-32.64 5.419-47.957-174.507 8.235-329.173 92.032-432.683 218.709-18.219-30.805-28.416-66.603-28.416-105.6 0-72.96 37.12-137.088 93.355-174.763-34.432 1.109-66.816 10.581-95.061 26.283v-2.603c0-101.76 72.235-186.624 168.363-205.952-17.621-4.736-36.224-7.296-55.296-7.296-13.397 0-26.24 1.28-39.083 3.669 26.923-83.328 104.32-144.085 196.437-145.792-71.68-56.277-162.517-89.813-260.352-89.813-16.64 0-33.237 0.981-49.92 2.859 93.397-59.477 203.435-94.251 322.432-94.251 386.304 0 597.291 319.829 597.291 596.736 0 8.917 0 17.92-0.64 26.88 41.003 29.397 76.8 66.56 104.96 108.715l-2.005 0.853z" />
<glyph unicode="&#xe92d;" glyph-name="facebook_plain" d="M967.509 960h-911.019c-31.189 0-56.491-25.301-56.491-56.491v-911.019c0-31.232 25.301-56.491 56.491-56.491h490.411v396.544h-133.504v154.496h133.504v114.133c0 132.224 80.811 204.16 198.784 204.16 56.533 0 105.131-4.139 119.296-6.016v-138.24h-81.963c-64 0-76.459-30.763-76.459-75.563v-98.603h152.917l-19.84-154.88h-133.077v-396.032h260.907c31.275 0 56.533 25.259 56.533 56.491v911.019c0 31.189-25.259 56.491-56.491 56.491z" />
<glyph unicode="&#xe92e;" glyph-name="apple_plain" d="M302.415-44.255c-20.169 13.475-38.079 29.977-53.046 49.038-16.331 19.743-31.47 40.509-45.37 62.001-32.664 47.759-58.206 99.994-75.903 155.045-21.321 64.048-31.682 125.367-31.682 185.364 0 66.948 14.499 125.367 42.727 174.405 20.895 38.378 52.023 70.487 89.548 93.045 36.246 22.6 78.461 34.967 121.102 35.819 14.924 0 31.129-2.132 48.185-6.396 12.366-3.411 27.291-8.955 45.626-15.778 23.453-8.955 36.246-14.499 40.509-15.778 13.645-5.117 25.158-7.249 34.113-7.249 6.823 0 16.63 2.132 27.504 5.544 6.183 2.132 17.91 5.97 34.54 13.219 16.459 5.97 29.508 11.087 39.87 14.924 15.778 4.69 31.043 8.955 44.774 11.087 16.63 2.559 33.133 3.411 48.952 2.132 30.275-2.132 57.993-8.528 82.725-17.91 43.495-17.483 78.589-44.774 104.771-83.578-11.087-6.823-21.321-14.754-30.915-23.453-20.767-18.336-38.378-40.084-52.449-64.175-18.336-32.834-27.717-69.932-27.461-107.457 0.64-46.181 12.366-86.776 35.819-121.956 16.502-25.585 38.548-47.503 65.413-65.498 13.219-8.955 24.817-15.138 35.819-19.189-5.117-15.991-10.746-31.555-17.27-46.906-14.796-34.412-32.408-67.374-53.302-98.502-18.421-26.864-32.92-46.906-43.921-60.125-17.142-20.468-33.687-35.819-50.318-46.778-18.336-12.153-39.87-18.592-61.916-18.592-14.924-0.64-29.85 1.279-44.091 5.416-12.366 4.051-24.562 8.614-36.502 13.773-12.494 5.714-25.414 10.575-38.59 14.499-16.204 4.265-32.834 6.311-49.635 6.268-17.057 0-33.687-2.132-49.464-6.183-13.219-3.753-26.012-8.358-38.676-13.859-17.91-7.463-29.636-12.366-36.459-14.499-13.816-4.094-27.973-6.567-42.215-7.463-22.174 0-42.812 6.396-63.366 19.189zM594.681 742.911c-28.996-14.499-56.543-20.639-84.132-18.592-4.265 27.547 0 55.86 11.513 86.861 10.234 26.438 23.879 50.318 42.642 71.638 19.616 22.174 43.068 40.509 69.506 53.729 28.144 14.499 55.008 22.174 80.593 23.453 3.411-28.996 0-57.566-10.661-88.268-9.722-27.291-24.221-52.449-42.642-75.049-18.549-22.174-41.576-40.509-67.629-53.729z" />
<glyph unicode="&#xe92f;" glyph-name="yahoo_plain" d="M576.341-63.999s-35.84 6.485-64.725 6.485c-25.984 0-64.981-6.485-64.981-6.485l8.149 434.987c-60.373 104.363-237.781 422.187-348.501 589.012 55.68-12.672 79.104-11.904 135.040 0l0.853-1.451c70.485-124.843 178.304-298.88 269.44-449.707 89.984 148.181 231.637 379.563 270.037 451.157 43.52-11.435 87.424-11.008 136.064 0-51.243-68.992-237.483-391.381-350.080-589.012l8.363-434.987h0.341z" />
<glyph unicode="&#xe930;" glyph-name="google_plain" d="M522.24 521.173v-175.573h290.389c-11.733-75.307-87.723-220.757-290.389-220.757-174.72 0-317.397 144.597-317.397 323.157s142.72 323.157 317.397 323.157c99.413 0 166.016-42.197 204.16-78.891l138.837 133.888c-89.173 83.243-204.8 133.845-342.997 133.845-283.093 0-512-228.907-512-512s228.907-512 512-512c295.509 0 491.52 207.744 491.52 500.309 0 33.621-3.627 59.307-8.064 84.864h-483.456z" />
<glyph unicode="&#xe931;" glyph-name="microsoftoutlook_plain, oftoutlookcom_plain" d="M1024 644.821v-447.061c0-9.813-3.413-18.091-10.155-24.576-6.741-6.571-15.019-9.813-24.747-9.813h-364.672v296.917l68.267-52.437c4.352-3.627 9.771-5.376 16.171-5.376 6.315 0 11.819 1.749 16.597 5.419l298.539 236.928zM624.427 731.051h364.672c9.003 0 16.768-2.688 23.168-8.192 6.4-5.461 9.984-12.8 10.581-21.76l-314.411-250.709-84.011 66.091v214.571zM571.904 923.136v-950.229l-571.904 98.816v749.867l571.904 101.547zM399.147 446.123c-0.853 48.341-13.355 88.405-37.504 120.064-23.68 31.573-54.4 48.256-90.923 49.664-35.157-1.408-65.237-18.048-89.6-49.664-24.32-31.659-36.48-71.765-37.12-120.064 0.64-47.659 13.44-87.339 37.76-119.083 24.363-31.573 54.357-48.341 89.643-50.176 36.48 1.493 67.157 18.091 91.52 49.92 24.32 31.915 37.12 71.68 37.76 119.339h-1.536zM266.027 552.021c18.389-0.853 33.877-10.923 46.208-30.592 12.16-19.669 18.56-44.587 18.56-74.752 0-30.763-6.357-55.765-18.56-75.563-12.843-19.797-28.16-30.037-46.763-30.037s-33.92 9.643-46.72 29.44-18.56 44.8-18.56 74.837c0 30.080 5.76 55.083 18.56 74.24 12.117 19.2 27.563 29.44 46.123 30.763l1.152 1.664z" />
<glyph unicode="&#xe932;" glyph-name="calendar_heart, session-type-private_party" horiz-adv-x="819" d="M197.249 621.455c-19.942 0-35.342 15.203-35.342 35.342v145.714c0 19.942 15.203 35.342 35.342 35.342 19.942 0 35.342-15.203 35.342-35.342v-145.714c0-20.139-15.401-35.342-35.342-35.342zM622.742 621.455c-19.942 0-35.342 15.203-35.342 35.342v145.714c0 19.942 15.203 35.342 35.342 35.342s35.342-15.203 35.342-35.342v-145.714c-0.198-20.139-15.401-35.342-35.342-35.342zM790.965 780.397h-88.85c-15.401 0-28.037-12.44-28.037-28.037v-94.576c0-29.221-24.089-51.534-51.534-51.534-29.221 0-51.534 22.311-51.534 51.534v94.576c0 15.401-12.44 28.037-28.037 28.037h-266.55c-15.401 0-28.037-12.44-28.037-28.037v-94.576c0-29.221-24.089-51.534-51.534-51.534-29.221 0-51.534 22.311-51.534 51.534v94.576c0 15.401-12.44 28.037-28.037 28.037h-89.244c-15.401 0-28.037-12.44-28.037-28.037v-666.177c0-15.401 12.44-28.037 28.037-28.037h762.926c15.401 0 28.037 12.44 28.037 28.037v666.177c0 15.401-12.44 28.037-28.037 28.037zM751.278 153.314c0-15.401-12.44-28.037-28.037-28.037h-629.059c-15.401 0-28.037 12.44-28.037 28.037v369.814c0 15.401 12.44 28.037 28.037 28.037h629.059c15.401 0 28.037-12.44 28.037-28.037v-369.814zM494.6 489.562c-46.597 0-84.507-37.909-84.507-84.507 0 46.597-37.909 84.507-84.507 84.507s-84.703-37.712-84.703-84.507c0-118.269 169.012-218.176 169.012-218.176s169.012 99.906 169.012 218.176c0.198 46.795-37.712 84.507-84.309 84.507z" />
<glyph unicode="&#xe933;" glyph-name="charity, session-type-fundraiser, session-type-fundraiser_pick_up" horiz-adv-x="819" d="M281.306 247.692c63.831-49.078 121.724-74.222 124.15-75.277 1.29-0.552 2.662-0.83 4.044-0.83s2.754 0.276 4.054 0.83c2.427 1.055 60.319 26.197 124.14 75.277 85.094 65.438 139.23 142.343 156.562 222.431 18.202 84.132-11.876 188.053-104.617 223.925-66.544 25.747-135.739 0.337-180.139-64.742-44.4 65.069-113.575 90.479-180.15 64.742-92.731-35.873-122.809-139.793-104.607-223.925 17.332-80.088 71.468-157.003 156.562-222.431zM236.742 674.945c13.678 5.292 28.9 8.415 44.789 8.415 40.704 0 85.627-20.619 119.113-78.41 3.655-6.316 14.057-6.316 17.711 0 46.54 80.334 115.131 88.851 163.903 69.994 60.165-23.269 114.608-95.935 91.974-200.491-36.579-169.011-233.876-267.005-264.732-281.378-30.876 14.353-228.133 112.203-264.732 281.378-22.624 104.556 31.808 177.222 91.974 200.491zM808.763 857.5h-798.525c-5.661 0-10.238-4.576-10.238-10.238v-798.525c0-5.661 4.576-10.238 10.238-10.238h798.525c5.661 0 10.238 4.576 10.238 10.238v798.525c0 5.661-4.576 10.238-10.238 10.238zM798.525 58.975h-778.050v778.050h778.050v-778.050zM408.455 415.854h2.078c22.604 0 41.001-18.304 41.001-40.806s-18.397-40.818-41.001-40.818-40.991 18.314-40.991 40.818c0 5.661-4.576 10.238-10.238 10.238s-10.238-4.576-10.238-10.238c0-29.597 21.14-54.351 49.151-60.053v-13.207c0-5.661 4.576-10.238 10.238-10.238s10.238 4.576 10.238 10.238v12.572c30.048 4.003 53.317 29.658 53.317 60.688 0 33.794-27.57 61.281-61.476 61.281h-2.078c-22.604 0-41.001 18.314-41.001 40.818s18.397 40.806 41.001 40.806 40.991-18.304 40.991-40.806c0-5.661 4.576-10.238 10.238-10.238s10.238 4.576 10.238 10.238c0 30.303-22.205 55.476-51.229 60.36v12.889c0 5.661-4.576 10.238-10.238 10.238s-10.238-4.576-10.238-10.238v-12.889c-29.034-4.884-51.239-30.058-51.239-60.36 0.010-33.794 27.58-61.293 61.476-61.293z" />
</font>
</defs>
</svg>
